<svg width="127" height="66" viewBox="0 0 127 66" fill="none" xmlns="http://www.w3.org/2000/svg">
<g filter="url(#filter0_d_114_1452)">
<path d="M18.0179 12.3451L18.1449 12.4687H18.9704C21.2566 12.4687 23.2535 11.4525 24.9611 9.42006H24.8342L18.0179 12.2215V12.3451ZM8.25923 9.35823L8.11106 8.65792C7.6171 8.7952 7.37018 8.95314 7.37018 9.13165L8.25923 9.35823ZM14.7156 8.24587C14.4192 8.69909 14.2005 9.17972 14.0594 9.68782H14.2922C14.8567 9.68782 15.6541 9.50241 16.6843 9.13165V8.84328C15.894 8.58237 15.2377 8.38326 14.7156 8.24587ZM13.4244 27.1765L12.8951 31.6465L13.2973 36.0341L13.3396 36.4461L13.4031 36.8375L13.9324 37.6614L14.4404 38.7532C13.0856 39.4947 11.8578 39.8312 10.7571 39.7626L10.3972 39.6802L8.80956 39.9479C7.76532 40.1265 6.97498 39.9479 6.43874 39.4123L5.65552 38.6708V38.5266C5.65552 38.4442 5.88836 38.3824 6.35407 38.3412L7.07379 38.2794L7.01029 37.4554C7.3772 36.9336 7.69475 36.3637 7.9629 35.7457L7.8994 34.8393L8.19573 32.697L8.49206 30.5547L9.06361 27.3825L8.87311 25.817L8.4709 23.757L8.13218 22.7477L8.95778 23.242L8.57678 21.4499L9.44467 21.6971L9.5505 20.9349L9.25417 20.3582L9.38111 20.3376L8.2804 13.1485C5.71195 12.1597 4.5477 12.0224 4.78761 12.7365L1.54883 14.3226L1.86635 10.8826L5.1898 7.46317C2.7766 8.83642 2.74132 8.36264 5.08396 6.04183H6.16357L7.37018 5.75341L11.3499 4.92946V5.21784H11.498C12.5847 5.21784 15.4283 5.91135 20.0289 7.29837L21.2355 7.46317C23.0419 6.70787 25.9702 6.09676 30.0204 5.62984C30.8107 5.23155 31.2059 4.95005 31.2059 4.78526L30.9518 3.7965C31.3893 1.94258 31.9608 1.01562 32.6665 1.01562L32.8146 1.13922V1.28341L32.5395 2.53996L32.6665 4.49687H32.8146C35.1432 4.19475 36.6532 3.68664 37.3447 2.97254L37.7469 2.82835C39.8778 3.26779 40.9433 3.54931 40.9433 3.67291V3.7965L38.9535 4.64107L38.5513 4.78526L36.9425 4.49687H36.5615C34.4164 4.97752 33.3438 5.35518 33.3438 5.62984C35.63 5.62984 38.2055 6.70102 41.0703 8.84328H41.3455C41.3455 7.07179 42.277 6.18601 44.1398 6.18601V6.74219L46.807 6.04183L47.061 6.3302C46.6376 7.36015 46.0661 7.87511 45.3464 7.87511L45.2194 7.99873V8.28715H45.3464L46.4048 8.14292L46.553 8.28715V8.55491C46.1437 8.55491 45.3816 8.98061 44.2668 9.83201L43.7587 9.97624V10.3882L46.934 10.9444H47.8654C49.5165 10.9444 51.6052 10.2852 54.1315 8.96685L56.3963 8.43128C56.989 8.43128 58.1888 8.85018 59.9946 9.68782C60.9967 8.56176 61.8862 7.99873 62.6622 7.99873H63.3395L63.5935 8.28715L62.5352 9.42006V9.68782H62.6622C63.1846 9.68782 64.2073 9.92131 65.7313 10.3882C64.6869 11.2259 63.5723 11.6448 62.387 11.6448H62.133L62.006 11.5005L61.6038 11.6448L61.7303 12.3451H61.6038C60.9404 12.3451 60.1433 11.5967 59.2115 10.0999C58.3085 9.53683 57.3705 9.25527 56.3963 9.25527C55.1263 9.58486 53.3127 10.2921 50.956 11.377V11.5005C50.956 11.6928 51.5276 11.9331 52.6705 12.2215L55.338 12.7571L55.465 12.9219V13.0455L54.5548 13.3339V13.4574C54.5548 13.6497 54.8155 13.7939 55.338 13.8901C55.3942 14.357 55.6199 14.5905 56.0153 14.5905V14.8788L55.6126 15.0024L54.1315 14.714V15.0024H53.8775L51.8661 12.7571C51.4429 12.4962 49.3543 12.2627 45.6004 12.0568C44.2879 11.6585 41.7618 10.5461 38.0221 8.7197H37.895V8.84328L38.5513 10.9444V11.0886L37.4717 10.6766H37.2177L37.0907 11.377C36.5403 10.7452 36.2651 10.1342 36.2651 9.54369H36.0111L35.4819 9.97624L35.3548 9.83201H35.2067L35.757 8.28715V8.14292C35.0232 7.57988 34.0424 7.29837 32.8146 7.29837C29.2583 7.83393 27.4802 8.44499 27.4802 9.13165L25.8926 11.0886V11.377L26.8028 11.2122L28.5598 11.377H28.6868C28.6868 10.6766 29.5265 10.2097 31.2059 9.97624C31.9256 10.141 32.2855 10.3195 32.2855 10.5118V10.6766C31.5939 10.6766 31.1494 10.91 30.9518 11.377V11.5005H31.8832C32.6453 11.5005 33.1815 11.7821 33.492 12.3451C33.492 12.5374 32.9134 12.6747 31.7562 12.7571L31.354 12.9219V13.0455L30.2744 12.7571V13.1897L31.0788 14.302V14.714H30.9518C30.1333 14.714 29.4206 14.0205 28.8138 12.6336L27.7554 12.2215H26.2948C25.7867 12.2215 23.8322 12.8738 20.4311 14.1784L18.1449 14.4462L15.0966 14.0136L13.7419 13.9931L13.8477 22.5417L16.3879 23.139L18.0391 23.2009L20.2618 22.6859L22.2092 21.244L22.0399 23.6129L22.4633 26.4349L22.1034 27.3825L20.4734 26.2496H17.6581L15.6258 26.3937L13.6784 26.5379L13.4244 27.1765ZM8.36506 38.1558L14.4616 37.0846L17.5733 36.7345L20.6639 37.1876L23.2042 37.8056L25.7656 38.815L29.47 39.4947L31.6292 39.5978L33.9366 39.3093L34.7833 38.815L34.2329 39.8656L31.4175 41.122L28.2634 41.3075L27.5013 40.9161L28.8985 41.6783L30.6555 42.461L28.4963 42.6464L25.6597 42.2756L24.0297 41.7812L20.2406 41.3075L17.9332 41.4105H16.1974L14.6733 41.9872L10.9688 42.358L9.12717 42.461L7.17963 41.122L6.96796 39.6802L7.39134 38.0528L8.36506 38.1558ZM37.8528 38.0322L37.7681 37.8674C38.6995 38.2657 37.9868 38.403 35.63 38.2794H35.3548C32.6453 38.2794 30.2673 36.8168 28.2211 33.8917C26.9651 31.9005 26.3371 30.0672 26.3371 28.3919C26.5629 22.4043 28.4045 18.5523 31.8621 16.8357C33.4991 16.1079 34.9174 15.744 36.1169 15.744C38.4031 15.744 40.5623 16.6023 42.5945 18.3188H42.7215C42.9755 18.3188 43.4482 17.8245 44.1398 16.8357H44.4149L44.7748 17.2477V20.2757C44.7748 22.8438 44.6126 24.1278 44.2879 24.1278C43.9775 24.1278 43.2366 23.1185 42.0652 21.0997C40.5693 19.8226 38.9394 19.184 37.1753 19.184H35.2913C33.4427 19.5685 32.1302 20.3032 31.354 21.3882C30.6202 23.4343 30.1898 25.2196 30.0628 26.7439C29.6958 30.6715 31.2341 33.3425 34.6774 34.757H36.9213C37.5987 34.757 38.269 34.7363 38.9323 34.6952C39.6803 34.5166 40.7175 34.2763 42.0441 33.9742C42.8908 32.8618 43.794 31.8044 44.7537 30.8019C45.177 32.4361 45.3534 33.8437 45.2828 35.0248L45.0712 37.682L44.6689 38.094L44.3938 38.0734C43.6599 37.0709 43.159 36.5628 42.8908 36.5491H42.7638C40.9292 37.8811 39.2921 38.3755 37.8528 38.0322ZM48.2041 16.5061H49.3896C52.5367 16.3826 54.244 16.6435 54.5125 17.2889C53.1996 18.3326 52.5435 19.6372 52.5435 21.2028V24.4986H53.3271L61.2228 24.9724V20.2552L58.8516 17.4331V16.9593L60.8207 16.5061H63.9957L66.7473 16.9593V17.4331L64.7793 20.2552V34.8393C64.7793 35.471 65.3013 35.7869 66.3452 35.7869L66.7473 36.2606V36.7345L65.9647 37.6614H60.4397L58.4706 37.1876V36.2606C60.3054 36.2606 61.2228 35.7869 61.2228 34.8393V27.3207H52.1413L52.1201 28.2682V28.7214C52.2192 33.4318 52.4944 35.7869 52.9456 35.7869C53.7221 35.7869 54.1103 36.1028 54.1103 36.7345L53.3271 37.6614H47.8019L45.8333 37.1876V36.2606H47.8019L48.5851 35.3131V20.2552C47.8372 18.6896 47.054 17.9069 46.2355 17.9069V16.9593L48.2041 16.5061ZM77.5645 16.6298H77.6497C78.2981 16.6298 78.9264 16.7602 79.5335 17.0211C80.0978 17.1859 80.6905 17.385 81.3115 17.6185C85.0653 19.2252 87.0694 22.8438 87.3234 28.4742C87.3234 30.0535 86.6388 31.7769 85.2702 33.6446C83.1814 36.2263 80.7757 37.5996 78.0519 37.7644C77.7695 37.8056 77.4731 37.8262 77.1624 37.8262H76.9084C74.2698 37.8262 71.9481 36.4461 69.944 33.6858C68.7303 31.8182 68.1237 30.0947 68.1237 28.5154C68.3214 23.4755 69.7747 20.0492 72.484 18.2365C73.7824 17.1379 75.1727 16.5886 76.6549 16.5886C76.9507 16.5886 77.2542 16.6023 77.5645 16.6298ZM77.628 19.1017H77.0359C74.3544 19.596 73.0137 20.4131 73.0137 21.5529C72.04 23.4618 71.5532 25.1372 71.5532 26.5791C71.5532 30.9873 73.1407 33.8163 76.3162 35.0659H78.0307C81.6714 33.8437 83.4922 31.0011 83.4922 26.5379C83.4922 25.096 82.9486 23.4137 81.8619 21.4911C81.8619 20.3925 80.4509 19.596 77.628 19.1017ZM103.665 16.7739H106.778L107.815 16.9593V22.1915L107.391 22.5829H107.201C106.989 22.5829 106.361 21.6834 105.317 19.8844C104.653 19.3626 103.821 19.1017 102.819 19.1017L95.5366 19.287V20.8526L95.9604 22.1915L95.7488 27.2383H98.0348C98.8814 27.2383 99.6434 26.531 100.321 25.1165L100.532 24.9106H100.745L101.167 25.302L100.956 29.566V30.5342L100.745 31.8937H100.13C99.82 31.8937 99.4669 31.1796 99.0719 29.7514L98.2464 29.1746H95.5366L95.3466 30.1427L95.7488 31.5023V34.5922L95.9604 35.5603H102.205L104.068 35.7663C104.646 35.7663 105.479 34.345 106.565 31.5023C107.116 31.6259 107.391 32.0104 107.391 32.6558V37.7026L107.201 38.6708H106.778C106.029 38.149 105.401 37.888 104.893 37.888H90.3507C89.6311 37.888 89.2144 37.6957 89.1014 37.3112C89.1014 36.8993 89.9341 36.5765 91.5996 36.3431L91.8107 36.1577V18.8957C91.7968 18.6347 91.169 18.1197 89.9274 17.3507L90.1385 17.1653V16.9593L103.665 16.7739ZM117.425 16.4032H118.102L122.103 16.9799L122.674 16.8563V16.9799L120.389 20.2757C120.022 19.3145 118.914 18.8338 117.065 18.8338H115.922C114.694 19.8089 113.954 20.5298 113.699 20.9967V22.0267C114.122 23.2901 116.317 24.6703 120.282 26.1671C122.695 28.0485 123.902 29.9436 123.902 31.8525C123.902 33.006 123.267 34.6333 121.997 36.7345C120.671 37.7233 119.104 38.2176 117.298 38.2176H116.155C114.871 38.2176 113.12 37.991 110.905 37.5378H110.672C110.517 37.5378 110.439 37.6477 110.439 37.8674H110.334V36.2813L110.1 33.6652C110.312 33.1571 110.539 32.8206 110.778 32.6558C111.483 34.6883 112.789 35.7045 114.694 35.7045H115.837C117.954 35.5672 119.217 35.0522 119.626 34.1596L120.155 33.3356C120.155 31.0422 118.102 29.2227 113.996 27.8769C111.018 26.0779 109.529 24.2995 109.529 22.5417C109.529 20.9624 110.707 19.2596 113.064 17.4331C114.673 16.7465 116.127 16.4032 117.425 16.4032Z" fill="url(#paint0_linear_114_1452)"/>
<mask id="mask0_114_1452" style="mask-type:luminance" maskUnits="userSpaceOnUse" x="0" y="0" width="125" height="45">
<path d="M124.935 0H0V44.1692H124.935V0Z" fill="white"/>
<path d="M18.0179 12.3451L18.1449 12.4687H18.9704C21.2566 12.4687 23.2535 11.4525 24.9611 9.42006H24.8342L18.0179 12.2215V12.3451ZM8.25923 9.35823L8.11106 8.65792C7.6171 8.7952 7.37018 8.95314 7.37018 9.13165L8.25923 9.35823ZM14.7156 8.24587C14.4192 8.69909 14.2005 9.17972 14.0594 9.68782H14.2922C14.8567 9.68782 15.6541 9.50241 16.6843 9.13165V8.84328C15.894 8.58237 15.2377 8.38326 14.7156 8.24587ZM13.4244 27.1765L12.8951 31.6465L13.2973 36.0341L13.3396 36.4461L13.4031 36.8375L13.9324 37.6614L14.4404 38.7532C13.0856 39.4947 11.8578 39.8312 10.7571 39.7626L10.3972 39.6802L8.80956 39.9479C7.76532 40.1265 6.97498 39.9479 6.43874 39.4123L5.65552 38.6708V38.5266C5.65552 38.4442 5.88836 38.3824 6.35407 38.3412L7.07379 38.2794L7.01029 37.4554C7.3772 36.9336 7.69475 36.3637 7.9629 35.7457L7.8994 34.8393L8.19573 32.697L8.49206 30.5547L9.06361 27.3825L8.87311 25.817L8.4709 23.757L8.13218 22.7477L8.95778 23.242L8.57678 21.4499L9.44467 21.6971L9.5505 20.9349L9.25417 20.3582L9.38111 20.3376L8.2804 13.1485C5.71195 12.1597 4.5477 12.0224 4.78761 12.7365L1.54883 14.3226L1.86635 10.8826L5.1898 7.46317C2.7766 8.83642 2.74132 8.36264 5.08396 6.04183H6.16357L7.37018 5.75341L11.3499 4.92946V5.21784H11.498C12.5847 5.21784 15.4283 5.91135 20.0289 7.29837L21.2355 7.46317C23.0419 6.70787 25.9702 6.09676 30.0204 5.62984C30.8107 5.23155 31.2059 4.95005 31.2059 4.78526L30.9518 3.7965C31.3893 1.94258 31.9608 1.01562 32.6665 1.01562L32.8146 1.13922V1.28341L32.5395 2.53996L32.6665 4.49687H32.8146C35.1432 4.19475 36.6532 3.68664 37.3447 2.97254L37.7469 2.82835C39.8778 3.26779 40.9433 3.54931 40.9433 3.67291V3.7965L38.9535 4.64107L38.5513 4.78526L36.9425 4.49687H36.5615C34.4164 4.97752 33.3438 5.35518 33.3438 5.62984C35.63 5.62984 38.2055 6.70102 41.0703 8.84328H41.3455C41.3455 7.07179 42.277 6.18601 44.1398 6.18601V6.74219L46.807 6.04183L47.061 6.3302C46.6376 7.36015 46.0661 7.87511 45.3464 7.87511L45.2194 7.99873V8.28715H45.3464L46.4048 8.14292L46.553 8.28715V8.55491C46.1437 8.55491 45.3816 8.98061 44.2668 9.83201L43.7587 9.97624V10.3882L46.934 10.9444H47.8654C49.5165 10.9444 51.6052 10.2852 54.1315 8.96685L56.3963 8.43128C56.989 8.43128 58.1888 8.85018 59.9946 9.68782C60.9967 8.56176 61.8862 7.99873 62.6622 7.99873H63.3395L63.5935 8.28715L62.5352 9.42006V9.68782H62.6622C63.1846 9.68782 64.2073 9.92131 65.7313 10.3882C64.6869 11.2259 63.5723 11.6448 62.387 11.6448H62.133L62.006 11.5005L61.6038 11.6448L61.7303 12.3451H61.6038C60.9404 12.3451 60.1433 11.5967 59.2115 10.0999C58.3085 9.53683 57.3705 9.25527 56.3963 9.25527C55.1263 9.58486 53.3127 10.2921 50.956 11.377V11.5005C50.956 11.6928 51.5276 11.9331 52.6705 12.2215L55.338 12.7571L55.465 12.9219V13.0455L54.5548 13.3339V13.4574C54.5548 13.6497 54.8155 13.7939 55.338 13.8901C55.3942 14.357 55.6199 14.5905 56.0153 14.5905V14.8788L55.6126 15.0024L54.1315 14.714V15.0024H53.8775L51.8661 12.7571C51.4429 12.4962 49.3543 12.2627 45.6004 12.0568C44.2879 11.6585 41.7618 10.5461 38.0221 8.7197H37.895V8.84328L38.5513 10.9444V11.0886L37.4717 10.6766H37.2177L37.0907 11.377C36.5403 10.7452 36.2651 10.1342 36.2651 9.54369H36.0111L35.4819 9.97624L35.3548 9.83201H35.2067L35.757 8.28715V8.14292C35.0232 7.57988 34.0424 7.29837 32.8146 7.29837C29.2583 7.83393 27.4802 8.44499 27.4802 9.13165L25.8926 11.0886V11.377L26.8028 11.2122L28.5598 11.377H28.6868C28.6868 10.6766 29.5265 10.2097 31.2059 9.97624C31.9256 10.141 32.2855 10.3195 32.2855 10.5118V10.6766C31.5939 10.6766 31.1494 10.91 30.9518 11.377V11.5005H31.8832C32.6453 11.5005 33.1815 11.7821 33.492 12.3451C33.492 12.5374 32.9134 12.6747 31.7562 12.7571L31.354 12.9219V13.0455L30.2744 12.7571V13.1897L31.0788 14.302V14.714H30.9518C30.1333 14.714 29.4206 14.0205 28.8138 12.6336L27.7554 12.2215H26.2948C25.7867 12.2215 23.8322 12.8738 20.4311 14.1784L18.1449 14.4462L15.0966 14.0136L13.7419 13.9931L13.8477 22.5417L16.3879 23.139L18.0391 23.2009L20.2618 22.6859L22.2092 21.244L22.0399 23.6129L22.4633 26.4349L22.1034 27.3825L20.4734 26.2496H17.6581L15.6258 26.3937L13.6784 26.5379L13.4244 27.1765ZM8.36506 38.1558L14.4616 37.0846L17.5733 36.7345L20.6639 37.1876L23.2042 37.8056L25.7656 38.815L29.47 39.4947L31.6292 39.5978L33.9366 39.3093L34.7833 38.815L34.2329 39.8656L31.4175 41.122L28.2634 41.3075L27.5013 40.9161L28.8985 41.6783L30.6555 42.461L28.4963 42.6464L25.6597 42.2756L24.0297 41.7812L20.2406 41.3075L17.9332 41.4105H16.1974L14.6733 41.9872L10.9688 42.358L9.12717 42.461L7.17963 41.122L6.96796 39.6802L7.39134 38.0528L8.36506 38.1558ZM37.8528 38.0322L37.7681 37.8674C38.6995 38.2657 37.9868 38.403 35.63 38.2794H35.3548C32.6453 38.2794 30.2673 36.8168 28.2211 33.8917C26.9651 31.9005 26.3371 30.0672 26.3371 28.3919C26.5629 22.4043 28.4045 18.5523 31.8621 16.8357C33.4991 16.1079 34.9174 15.744 36.1169 15.744C38.4031 15.744 40.5623 16.6023 42.5945 18.3188H42.7215C42.9755 18.3188 43.4482 17.8245 44.1398 16.8357H44.4149L44.7748 17.2477V20.2757C44.7748 22.8438 44.6126 24.1278 44.2879 24.1278C43.9775 24.1278 43.2366 23.1185 42.0652 21.0997C40.5693 19.8226 38.9394 19.184 37.1753 19.184H35.2913C33.4427 19.5685 32.1302 20.3032 31.354 21.3882C30.6202 23.4343 30.1898 25.2196 30.0628 26.7439C29.6958 30.6715 31.2341 33.3425 34.6774 34.757H36.9213C37.5987 34.757 38.269 34.7363 38.9323 34.6952C39.6803 34.5166 40.7175 34.2763 42.0441 33.9742C42.8908 32.8618 43.794 31.8044 44.7537 30.8019C45.177 32.4361 45.3534 33.8437 45.2828 35.0248L45.0712 37.682L44.6689 38.094L44.3938 38.0734C43.6599 37.0709 43.159 36.5628 42.8908 36.5491H42.7638C40.9292 37.8811 39.2921 38.3755 37.8528 38.0322ZM48.2041 16.5061H49.3896C52.5367 16.3826 54.244 16.6435 54.5125 17.2889C53.1996 18.3326 52.5435 19.6372 52.5435 21.2028V24.4986H53.3271L61.2228 24.9724V20.2552L58.8516 17.4331V16.9593L60.8207 16.5061H63.9957L66.7473 16.9593V17.4331L64.7793 20.2552V34.8393C64.7793 35.471 65.3013 35.7869 66.3452 35.7869L66.7473 36.2606V36.7345L65.9647 37.6614H60.4397L58.4706 37.1876V36.2606C60.3054 36.2606 61.2228 35.7869 61.2228 34.8393V27.3207H52.1413L52.1201 28.2682V28.7214C52.2192 33.4318 52.4944 35.7869 52.9456 35.7869C53.7221 35.7869 54.1103 36.1028 54.1103 36.7345L53.3271 37.6614H47.8019L45.8333 37.1876V36.2606H47.8019L48.5851 35.3131V20.2552C47.8372 18.6896 47.054 17.9069 46.2355 17.9069V16.9593L48.2041 16.5061ZM77.5645 16.6298H77.6497C78.2981 16.6298 78.9264 16.7602 79.5335 17.0211C80.0978 17.1859 80.6905 17.385 81.3115 17.6185C85.0653 19.2252 87.0694 22.8438 87.3234 28.4742C87.3234 30.0535 86.6388 31.7769 85.2702 33.6446C83.1814 36.2263 80.7757 37.5996 78.0519 37.7644C77.7695 37.8056 77.4731 37.8262 77.1624 37.8262H76.9084C74.2698 37.8262 71.9481 36.4461 69.944 33.6858C68.7303 31.8182 68.1237 30.0947 68.1237 28.5154C68.3214 23.4755 69.7747 20.0492 72.484 18.2365C73.7824 17.1379 75.1727 16.5886 76.6549 16.5886C76.9507 16.5886 77.2542 16.6023 77.5645 16.6298ZM77.628 19.1017H77.0359C74.3544 19.596 73.0137 20.4131 73.0137 21.5529C72.04 23.4618 71.5532 25.1372 71.5532 26.5791C71.5532 30.9873 73.1407 33.8163 76.3162 35.0659H78.0307C81.6714 33.8437 83.4922 31.0011 83.4922 26.5379C83.4922 25.096 82.9486 23.4137 81.8619 21.4911C81.8619 20.3925 80.4509 19.596 77.628 19.1017ZM103.665 16.7739H106.778L107.815 16.9593V22.1915L107.391 22.5829H107.201C106.989 22.5829 106.361 21.6834 105.317 19.8844C104.653 19.3626 103.821 19.1017 102.819 19.1017L95.5366 19.287V20.8526L95.9604 22.1915L95.7488 27.2383H98.0348C98.8814 27.2383 99.6434 26.531 100.321 25.1165L100.532 24.9106H100.745L101.167 25.302L100.956 29.566V30.5342L100.745 31.8937H100.13C99.82 31.8937 99.4669 31.1796 99.0719 29.7514L98.2464 29.1746H95.5366L95.3466 30.1427L95.7488 31.5023V34.5922L95.9604 35.5603H102.205L104.068 35.7663C104.646 35.7663 105.479 34.345 106.565 31.5023C107.116 31.6259 107.391 32.0104 107.391 32.6558V37.7026L107.201 38.6708H106.778C106.029 38.149 105.401 37.888 104.893 37.888H90.3507C89.6311 37.888 89.2144 37.6957 89.1014 37.3112C89.1014 36.8993 89.9341 36.5765 91.5996 36.3431L91.8107 36.1577V18.8957C91.7968 18.6347 91.169 18.1197 89.9274 17.3507L90.1385 17.1653V16.9593L103.665 16.7739ZM117.425 16.4032H118.102L122.103 16.9799L122.674 16.8563V16.9799L120.389 20.2757C120.022 19.3145 118.914 18.8338 117.065 18.8338H115.922C114.694 19.8089 113.954 20.5298 113.699 20.9967V22.0267C114.122 23.2901 116.317 24.6703 120.282 26.1671C122.695 28.0485 123.902 29.9436 123.902 31.8525C123.902 33.006 123.267 34.6333 121.997 36.7345C120.671 37.7233 119.104 38.2176 117.298 38.2176H116.155C114.871 38.2176 113.12 37.991 110.905 37.5378H110.672C110.517 37.5378 110.439 37.6477 110.439 37.8674H110.334V36.2813L110.1 33.6652C110.312 33.1571 110.539 32.8206 110.778 32.6558C111.483 34.6883 112.789 35.7045 114.694 35.7045H115.837C117.954 35.5672 119.217 35.0522 119.626 34.1596L120.155 33.3356C120.155 31.0422 118.102 29.2227 113.996 27.8769C111.018 26.0779 109.529 24.2995 109.529 22.5417C109.529 20.9624 110.707 19.2596 113.064 17.4331C114.673 16.7465 116.127 16.4032 117.425 16.4032Z" fill="black"/>
</mask>
<g mask="url(#mask0_114_1452)">
<path d="M18.0179 12.3451L18.1449 12.4687H18.9704C21.2566 12.4687 23.2535 11.4525 24.9611 9.42006H24.8342L18.0179 12.2215V12.3451ZM8.25923 9.35823L8.11106 8.65792C7.6171 8.7952 7.37018 8.95314 7.37018 9.13164L8.25923 9.35823ZM14.7156 8.24587C14.4192 8.69909 14.2005 9.17972 14.0594 9.68782H14.2922C14.8567 9.68782 15.6541 9.50241 16.6843 9.13164V8.84328C15.894 8.58237 15.2377 8.38326 14.7156 8.24587ZM13.4244 27.1765L12.8951 31.6465L13.2973 36.0341L13.3396 36.4461L13.4031 36.8375L13.9324 37.6614L14.4404 38.7532C13.0856 39.4947 11.8578 39.8312 10.7571 39.7626L10.3972 39.6802L8.80956 39.9479C7.76532 40.1265 6.97498 39.9479 6.43874 39.4123L5.65552 38.6708V38.5266C5.65552 38.4442 5.88836 38.3824 6.35407 38.3412L7.07379 38.2794L7.01029 37.4554C7.3772 36.9336 7.69475 36.3637 7.9629 35.7457L7.8994 34.8393L8.19573 32.697L8.49206 30.5547L9.06361 27.3825L8.87311 25.817L8.4709 23.757L8.13218 22.7476L8.95778 23.242L8.57678 21.4499L9.44467 21.6971L9.5505 20.9349L9.25417 20.3582L9.38111 20.3376L8.2804 13.1485C5.71195 12.1597 4.5477 12.0224 4.78761 12.7365L1.54883 14.3226L1.86635 10.8826L5.1898 7.46317C2.7766 8.83642 2.74132 8.36264 5.08396 6.04183H6.16357L7.37018 5.75341L11.3499 4.92946V5.21784H11.498C12.5847 5.21784 15.4283 5.91135 20.0289 7.29837L21.2355 7.46317C23.0419 6.70787 25.9702 6.09676 30.0204 5.62984C30.8107 5.23155 31.2059 4.95005 31.2059 4.78526L30.9518 3.7965C31.3893 1.94258 31.9608 1.01562 32.6665 1.01562L32.8146 1.13922V1.28341L32.5395 2.53996L32.6665 4.49687H32.8146C35.1432 4.19475 36.6532 3.68664 37.3447 2.97254L37.7469 2.82835C39.8778 3.26779 40.9433 3.54931 40.9433 3.67291V3.7965L38.9535 4.64107L38.5513 4.78526L36.9425 4.49687H36.5615C34.4164 4.97752 33.3438 5.35518 33.3438 5.62984C35.63 5.62984 38.2055 6.70102 41.0703 8.84328H41.3455C41.3455 7.07179 42.277 6.18601 44.1398 6.18601V6.74219L46.807 6.04183L47.061 6.3302C46.6377 7.36015 46.0661 7.87511 45.3464 7.87511L45.2194 7.99873V8.28715H45.3464L46.4048 8.14291L46.553 8.28715V8.55491C46.1437 8.55491 45.3816 8.98061 44.2668 9.83201L43.7587 9.97624V10.3882L46.934 10.9444H47.8654C49.5165 10.9444 51.6052 10.2852 54.1315 8.96685L56.3963 8.43128C56.989 8.43128 58.1888 8.85018 59.9946 9.68782C60.9967 8.56176 61.8862 7.99873 62.6622 7.99873H63.3395L63.5935 8.28715L62.5352 9.42006V9.68782H62.6622C63.1846 9.68782 64.2073 9.92131 65.7313 10.3882C64.6869 11.2259 63.5723 11.6448 62.387 11.6448H62.133L62.006 11.5005L61.6038 11.6448L61.7303 12.3451H61.6038C60.9404 12.3451 60.1433 11.5967 59.2115 10.0999C58.3085 9.53683 57.3705 9.25527 56.3963 9.25527C55.1263 9.58486 53.3127 10.2921 50.956 11.377V11.5005C50.956 11.6928 51.5276 11.9331 52.6705 12.2215L55.338 12.7571L55.465 12.9219V13.0455L54.5548 13.3339V13.4574C54.5548 13.6497 54.8155 13.7939 55.338 13.8901C55.3942 14.357 55.6199 14.5905 56.0153 14.5905V14.8788L55.6126 15.0024L54.1315 14.714V15.0024H53.8775L51.8661 12.7571C51.4429 12.4962 49.3543 12.2627 45.6004 12.0568C44.2879 11.6585 41.7618 10.5461 38.0221 8.7197H37.895V8.84328L38.5513 10.9444V11.0886L37.4717 10.6766H37.2177L37.0907 11.377C36.5403 10.7452 36.2651 10.1342 36.2651 9.54369H36.0111L35.4819 9.97624L35.3548 9.83201H35.2067L35.7571 8.28715V8.14291C35.0232 7.57988 34.0425 7.29837 32.8146 7.29837C29.2583 7.83393 27.4802 8.44499 27.4802 9.13164L25.8926 11.0886V11.377L26.8028 11.2122L28.5598 11.377H28.6868C28.6868 10.6766 29.5265 10.2097 31.2059 9.97624C31.9256 10.141 32.2855 10.3195 32.2855 10.5118V10.6766C31.5939 10.6766 31.1494 10.91 30.9518 11.377V11.5005H31.8832C32.6453 11.5005 33.1815 11.7821 33.492 12.3451C33.492 12.5374 32.9134 12.6747 31.7562 12.7571L31.354 12.9219V13.0455L30.2744 12.7571V13.1897L31.0788 14.302V14.714H30.9518C30.1333 14.714 29.4206 14.0205 28.8138 12.6336L27.7554 12.2215H26.2948C25.7867 12.2215 23.8322 12.8738 20.4311 14.1784L18.1449 14.4462L15.0966 14.0136L13.7419 13.9931L13.8477 22.5417L16.3879 23.139L18.0391 23.2009L20.2618 22.6859L22.2093 21.244L22.0399 23.6129L22.4633 26.4349L22.1034 27.3825L20.4734 26.2496H17.6581L15.6258 26.3937L13.6784 26.5379L13.4244 27.1765ZM8.36506 38.1558L14.4616 37.0846L17.5733 36.7345L20.6639 37.1876L23.2042 37.8056L25.7656 38.815L29.47 39.4947L31.6292 39.5978L33.9366 39.3093L34.7833 38.815L34.2329 39.8656L31.4175 41.122L28.2634 41.3075L27.5013 40.9161L28.8985 41.6783L30.6555 42.461L28.4963 42.6464L25.6597 42.2756L24.0297 41.7812L20.2406 41.3075L17.9332 41.4105H16.1974L14.6733 41.9872L10.9688 42.358L9.12717 42.461L7.17963 41.122L6.96796 39.6802L7.39134 38.0528L8.36506 38.1558ZM37.8528 38.0322L37.7681 37.8674C38.6995 38.2657 37.9868 38.4029 35.63 38.2794H35.3548C32.6453 38.2794 30.2673 36.8168 28.2211 33.8917C26.9651 31.9005 26.3371 30.0672 26.3371 28.3919C26.5629 22.4043 28.4045 18.5523 31.8621 16.8357C33.4991 16.1079 34.9174 15.744 36.1169 15.744C38.4031 15.744 40.5623 16.6023 42.5945 18.3188H42.7215C42.9755 18.3188 43.4482 17.8245 44.1398 16.8357H44.4149L44.7748 17.2477V20.2757C44.7748 22.8438 44.6126 24.1278 44.2879 24.1278C43.9775 24.1278 43.2366 23.1185 42.0652 21.0997C40.5693 19.8226 38.9394 19.184 37.1753 19.184H35.2913C33.4427 19.5685 32.1302 20.3032 31.354 21.3881C30.6202 23.4343 30.1898 25.2196 30.0628 26.7439C29.6958 30.6715 31.2341 33.3425 34.6775 34.757H36.9213C37.5987 34.757 38.269 34.7363 38.9323 34.6952C39.6803 34.5166 40.7175 34.2763 42.0441 33.9742C42.8908 32.8618 43.794 31.8044 44.7537 30.8019C45.177 32.4361 45.3534 33.8437 45.2828 35.0248L45.0712 37.682L44.6689 38.094L44.3938 38.0734C43.6599 37.0709 43.159 36.5628 42.8908 36.5491H42.7638C40.9292 37.8811 39.2921 38.3755 37.8528 38.0322ZM48.2041 16.5061H49.3896C52.5367 16.3826 54.244 16.6435 54.5125 17.2889C53.1996 18.3326 52.5435 19.6372 52.5435 21.2028V24.4986H53.3271L61.2228 24.9724V20.2552L58.8516 17.4331V16.9593L60.8207 16.5061H63.9957L66.7473 16.9593V17.4331L64.7793 20.2552V34.8393C64.7793 35.471 65.3013 35.7869 66.3452 35.7869L66.7473 36.2606V36.7345L65.9647 37.6614H60.4397L58.4706 37.1876V36.2606C60.3054 36.2606 61.2228 35.7869 61.2228 34.8393V27.3207H52.1413L52.1201 28.2682V28.7214C52.2192 33.4318 52.4944 35.7869 52.9456 35.7869C53.7221 35.7869 54.1103 36.1028 54.1103 36.7345L53.3271 37.6614H47.8019L45.8333 37.1876V36.2606H47.8019L48.5851 35.3131V20.2552C47.8372 18.6896 47.054 17.9069 46.2355 17.9069V16.9593L48.2041 16.5061ZM77.5645 16.6298H77.6497C78.2981 16.6298 78.9264 16.7602 79.5335 17.0211C80.0978 17.1859 80.6905 17.385 81.3115 17.6185C85.0653 19.2252 87.0694 22.8438 87.3234 28.4742C87.3234 30.0535 86.6388 31.7769 85.2702 33.6446C83.1814 36.2263 80.7757 37.5996 78.0519 37.7644C77.7695 37.8056 77.4731 37.8262 77.1624 37.8262H76.9084C74.2698 37.8262 71.9481 36.4461 69.944 33.6858C68.7303 31.8182 68.1237 30.0947 68.1237 28.5154C68.3214 23.4755 69.7747 20.0492 72.484 18.2365C73.7824 17.1379 75.1727 16.5886 76.6549 16.5886C76.9507 16.5886 77.2543 16.6023 77.5645 16.6298ZM77.628 19.1017H77.0359C74.3544 19.596 73.0137 20.4131 73.0137 21.5529C72.04 23.4618 71.5532 25.1372 71.5532 26.5791C71.5532 30.9873 73.1407 33.8163 76.3162 35.0659H78.0307C81.6714 33.8437 83.4922 31.001 83.4922 26.5379C83.4922 25.096 82.9486 23.4137 81.8619 21.4911C81.8619 20.3925 80.4509 19.596 77.628 19.1017ZM103.665 16.7739H106.778L107.815 16.9593V22.1915L107.391 22.5829H107.201C106.989 22.5829 106.361 21.6834 105.317 19.8844C104.653 19.3626 103.821 19.1017 102.819 19.1017L95.5366 19.287V20.8526L95.9604 22.1915L95.7488 27.2383H98.0348C98.8814 27.2383 99.6434 26.531 100.321 25.1165L100.532 24.9106H100.745L101.167 25.3019L100.956 29.566V30.5342L100.745 31.8937H100.13C99.82 31.8937 99.4669 31.1796 99.0719 29.7514L98.2464 29.1746H95.5366L95.3466 30.1427L95.7488 31.5023V34.5922L95.9604 35.5603H102.205L104.068 35.7663C104.646 35.7663 105.479 34.345 106.565 31.5023C107.116 31.6259 107.391 32.0104 107.391 32.6558V37.7026L107.201 38.6708H106.778C106.029 38.149 105.401 37.888 104.893 37.888H90.3507C89.6311 37.888 89.2144 37.6957 89.1014 37.3112C89.1014 36.8993 89.9341 36.5765 91.5996 36.3431L91.8107 36.1577V18.8957C91.7968 18.6347 91.169 18.1197 89.9274 17.3507L90.1386 17.1653V16.9593L103.665 16.7739ZM117.425 16.4032H118.102L122.103 16.9799L122.674 16.8563V16.9799L120.389 20.2757C120.022 19.3145 118.914 18.8338 117.065 18.8338H115.922C114.694 19.8089 113.954 20.5298 113.699 20.9967V22.0267C114.122 23.2901 116.317 24.6703 120.282 26.1671C122.695 28.0485 123.902 29.9436 123.902 31.8525C123.902 33.006 123.267 34.6333 121.997 36.7345C120.671 37.7233 119.104 38.2176 117.298 38.2176H116.155C114.871 38.2176 113.12 37.991 110.905 37.5378H110.672C110.517 37.5378 110.439 37.6477 110.439 37.8674H110.334V36.2813L110.1 33.6652C110.312 33.1571 110.539 32.8206 110.778 32.6558C111.483 34.6883 112.789 35.7045 114.694 35.7045H115.837C117.954 35.5672 119.217 35.0522 119.626 34.1596L120.155 33.3356C120.155 31.0422 118.102 29.2227 113.996 27.8769C111.018 26.0779 109.529 24.2995 109.529 22.5417C109.529 20.9624 110.707 19.2596 113.064 17.4331C114.673 16.7465 116.127 16.4032 117.425 16.4032Z" stroke="#010000" stroke-width="4"/>
</g>
</g>
<path d="M4.64639 57.877H2.06509C1.77997 57.877 1.54883 58.1043 1.54883 58.3846C1.54883 58.665 1.77997 58.8923 2.06509 58.8923H4.64639C4.93151 58.8923 5.16265 58.665 5.16265 58.3846C5.16265 58.1043 4.93151 57.877 4.64639 57.877Z" fill="white"/>
<path d="M4.64639 57.877H2.06509C1.77997 57.877 1.54883 58.1043 1.54883 58.3846C1.54883 58.665 1.77997 58.8923 2.06509 58.8923H4.64639C4.93151 58.8923 5.16265 58.665 5.16265 58.3846C5.16265 58.1043 4.93151 57.877 4.64639 57.877Z" fill="white"/>
<path d="M11.7727 58.1664H13.6361L12.5955 55.4771L11.7727 58.1664ZM10.6353 62.0695L9.8125 61.8791L12.3051 54.1211H12.8375L15.7657 61.9269L14.9913 62.1406L13.8538 58.9041H11.5791L10.6353 62.0695ZM16.5884 61.308V54.1211L17.387 54.0734V60.9983L18.1856 61.1887L18.113 62.0457L16.782 61.7837L16.5884 61.308ZM19.9522 61.6888V58.0831H18.718L18.7906 57.2145H20.1216V54.7872H20.9444V57.2622H22.9288V58.1192H20.8596V61.2125L22.6867 60.8795L22.8077 61.6888L20.3878 62.1883L19.9522 61.6888ZM23.5096 59.4991C23.5096 59.063 23.5741 58.6979 23.7032 58.4045C23.8322 58.1029 23.9935 57.8653 24.1871 57.6907C24.3888 57.5079 24.6106 57.381 24.8526 57.3099C25.0946 57.2307 25.3285 57.1906 25.5544 57.1906C25.8771 57.1906 26.1675 57.2383 26.4256 57.3338C26.6837 57.4211 26.9015 57.5714 27.079 57.7856C27.2645 57.9922 27.4057 58.2694 27.5025 58.6187C27.5993 58.9675 27.6477 59.396 27.6477 59.9037L24.2839 60.2251C24.3081 60.4469 24.3686 60.6378 24.4654 60.7962C24.5703 60.947 24.6994 61.0699 24.8526 61.1653C25.0059 61.2603 25.1712 61.3278 25.3487 61.3674C25.5262 61.407 25.7077 61.4268 25.8932 61.4268C26.1997 61.4268 26.4942 61.3831 26.7765 61.2958C27.0588 61.2085 27.2685 61.1019 27.4057 60.9749L27.6235 61.5461C27.567 61.6253 27.4823 61.7045 27.3694 61.7837C27.2565 61.8634 27.1234 61.9304 26.9701 61.9863C26.8168 62.0497 26.6434 62.0969 26.4498 62.1289C26.2643 62.1685 26.0707 62.1883 25.869 62.1883C25.5867 62.1883 25.3043 62.1447 25.022 62.0573C24.7397 61.97 24.4856 61.8233 24.2597 61.6172C24.0339 61.411 23.8523 61.1374 23.7152 60.7962C23.5781 60.4469 23.5096 60.0149 23.5096 59.4991ZM24.2113 59.5229L26.8733 59.2376C26.8733 58.8487 26.7684 58.5395 26.5587 58.3095C26.349 58.0714 26.0102 57.9521 25.5423 57.9521C25.3165 57.9603 25.1188 58.008 24.9494 58.0953C24.7881 58.1826 24.651 58.2933 24.538 58.4283C24.4251 58.5553 24.3404 58.702 24.2839 58.8685C24.2275 59.035 24.1992 59.2056 24.1992 59.3803C24.1992 59.4437 24.2033 59.4915 24.2113 59.5229ZM29.0029 62.2122L28.5915 56.9769L29.3416 56.8814L29.5111 59.1899L32.1004 57.4764L32.4392 58.1425L29.632 60.1418V62.1406L29.0029 62.2122ZM36.287 58.0714H33.9396V61.8791L33.3346 61.9502V56.8337L33.9154 56.7149V57.3099L36.7226 57.1434L37.0855 57.8572L37.4486 61.7365L36.6742 61.9502L36.287 58.0714ZM42.4579 58.4283L43.2323 61.6649L42.5063 61.9269L42.0707 59.9037C42.0142 60.1261 41.9255 60.3561 41.8045 60.5942C41.6916 60.8318 41.5464 61.0501 41.3689 61.2486C41.1995 61.439 40.9938 61.5974 40.7518 61.7243C40.5179 61.8431 40.2517 61.903 39.9532 61.903C39.4208 61.903 39.0135 61.7365 38.7311 61.4029C38.4569 61.0617 38.3198 60.5942 38.3198 59.9991C38.3198 59.658 38.3722 59.3046 38.477 58.9401C38.5819 58.5669 38.7392 58.2298 38.9489 57.9288C39.1587 57.6272 39.4208 57.3774 39.7355 57.1789C40.0581 56.9804 40.4332 56.8814 40.8607 56.8814C41.1108 56.8814 41.3286 56.9367 41.5141 57.0479C41.7077 57.151 41.8691 57.282 41.9981 57.4409C42.1272 57.5993 42.228 57.7699 42.3006 57.9521C42.3732 58.1268 42.4256 58.2857 42.4579 58.4283ZM40.9817 57.7384C40.9252 57.7221 40.8688 57.7105 40.8123 57.7023C40.7639 57.6947 40.7115 57.6907 40.655 57.6907C40.4049 57.6907 40.1791 57.7658 39.9774 57.9166C39.7838 58.0593 39.6185 58.242 39.4814 58.4639C39.3523 58.6863 39.2514 58.9279 39.1788 59.1899C39.1143 59.4519 39.082 59.6935 39.082 59.9159C39.082 60.2647 39.1587 60.5464 39.3119 60.7607C39.4652 60.9749 39.7072 61.0815 40.0379 61.0815C40.2638 61.0815 40.4735 61.0105 40.6671 60.8678C40.8607 60.717 41.0261 60.5307 41.1632 60.3083C41.3003 60.0865 41.4052 59.8443 41.4778 59.5823C41.5585 59.3127 41.5988 59.063 41.5988 58.833C41.5988 58.5791 41.5464 58.3568 41.4415 58.1664C41.3447 57.9684 41.1915 57.8252 40.9817 57.7384ZM45.1198 61.6888V58.0831H43.8857L43.9583 57.2145H45.2893V54.7872H46.112V57.2622H48.0964V58.1192H46.0273V61.2125L47.8544 60.8795L47.9754 61.6888L45.5555 62.1883L45.1198 61.6888ZM48.6772 59.4991C48.6772 59.063 48.7418 58.6979 48.8708 58.4045C48.9999 58.1029 49.1612 57.8653 49.3548 57.6907C49.5565 57.5079 49.7783 57.381 50.0203 57.3099C50.2623 57.2307 50.4962 57.1906 50.7221 57.1906C51.0448 57.1906 51.3351 57.2383 51.5933 57.3338C51.8517 57.4211 52.069 57.5714 52.2466 57.7856C52.4319 57.9922 52.5734 58.2694 52.6699 58.6187C52.767 58.9675 52.8155 59.396 52.8155 59.9037L49.4516 60.2251C49.4758 60.4469 49.5363 60.6378 49.6331 60.7962C49.738 60.947 49.8671 61.0699 50.0203 61.1653C50.1736 61.2603 50.3389 61.3278 50.5164 61.3674C50.6939 61.407 50.8754 61.4268 51.0609 61.4268C51.3674 61.4268 51.6617 61.3831 51.9441 61.2958C52.2265 61.2085 52.4361 61.1019 52.5734 60.9749L52.7913 61.5461C52.7345 61.6253 52.6498 61.7045 52.5373 61.7837C52.4242 61.8634 52.291 61.9304 52.1377 61.9863C51.9843 62.0497 51.8109 62.0969 51.6175 62.1289C51.4319 62.1685 51.2383 62.1883 51.0367 62.1883C50.7544 62.1883 50.472 62.1447 50.1897 62.0573C49.9074 61.97 49.6533 61.8233 49.4274 61.6172C49.2015 61.411 49.02 61.1374 48.8829 60.7962C48.7458 60.4469 48.6772 60.0149 48.6772 59.4991ZM49.379 59.5229L52.0411 59.2376C52.0411 58.8487 51.9363 58.5395 51.7262 58.3095C51.5167 58.0714 51.1778 57.9521 50.71 57.9521C50.4841 57.9603 50.2865 58.008 50.1171 58.0953C49.9558 58.1826 49.8186 58.2933 49.7057 58.4283C49.5928 58.5553 49.5081 58.702 49.4516 58.8685C49.3951 59.035 49.3669 59.2056 49.3669 59.3803C49.3669 59.4437 49.3709 59.4915 49.379 59.5229ZM57.7035 58.6665V62.6645H56.8083V55.073L57.3891 54.5491C57.5744 54.5252 57.7603 54.5054 57.9456 54.4897C58.1392 54.4739 58.3287 54.4658 58.5145 54.4658C58.9502 54.4658 59.3736 54.5095 59.785 54.5968C60.1965 54.676 60.563 54.807 60.8862 54.9892C61.2084 55.1639 61.4665 55.3903 61.6606 55.6675C61.862 55.9452 61.9626 56.2823 61.9626 56.6793C61.9626 57.0363 61.8981 57.3378 61.769 57.5835C61.64 57.8293 61.4665 58.0354 61.2491 58.2024C61.0313 58.3608 60.785 58.4837 60.5109 58.571C60.2368 58.6502 59.9544 58.7061 59.6637 58.7375L61.5754 61.7365L60.9466 62.1645L58.817 58.7853C58.6234 58.7853 58.434 58.7812 58.2481 58.7736C58.0628 58.7655 57.8811 58.7299 57.7035 58.6665ZM57.752 57.9521C58.0669 58.0395 58.4299 58.0831 58.8413 58.0831C59.1072 58.0831 59.3777 58.0633 59.6518 58.0237C59.926 57.976 60.1722 57.9009 60.3901 57.7978C60.6157 57.6866 60.7974 57.5399 60.9342 57.3576C61.0716 57.1749 61.1402 56.9489 61.1402 56.6793C61.1402 56.4494 61.0793 56.2427 60.9585 56.0605C60.8377 55.8777 60.6684 55.7274 60.4505 55.6081C60.2409 55.4812 59.9905 55.3863 59.7004 55.3228C59.418 55.2512 59.1113 55.2157 58.7804 55.2157C58.6271 55.2157 58.4743 55.2233 58.3209 55.2395C58.1676 55.2553 58.0101 55.2791 57.8491 55.3106C57.8088 55.731 57.7804 56.1752 57.7644 56.6433C57.7561 57.1114 57.752 57.548 57.752 57.9521ZM62.8098 59.4991C62.8098 59.063 62.8743 58.6979 63.0034 58.4045C63.1325 58.1029 63.2941 57.8653 63.4877 57.6907C63.689 57.5079 63.911 57.381 64.1531 57.3099C64.3947 57.2307 64.6291 57.1906 64.8547 57.1906C65.1774 57.1906 65.4675 57.2383 65.7256 57.3338C65.9838 57.4211 66.2016 57.5714 66.3792 57.7856C66.5651 57.9922 66.706 58.2694 66.8026 58.6187C66.8996 58.9675 66.9481 59.396 66.9481 59.9037L63.5842 60.2251C63.6085 60.4469 63.6689 60.6378 63.7659 60.7962C63.8707 60.947 63.9998 61.0699 64.1531 61.1653C64.3059 61.2603 64.4716 61.3278 64.6492 61.3674C64.8263 61.407 65.008 61.4268 65.1934 61.4268C65.5 61.4268 65.7943 61.3831 66.0767 61.2958C66.3591 61.2085 66.5687 61.1019 66.706 60.9749L66.9239 61.5461C66.8671 61.6253 66.7824 61.7045 66.6699 61.7837C66.5568 61.8634 66.4236 61.9304 66.2703 61.9863C66.117 62.0497 65.9435 62.0969 65.7499 62.1289C65.5646 62.1685 65.371 62.1883 65.1691 62.1883C64.8872 62.1883 64.6048 62.1447 64.3224 62.0573C64.0401 61.97 63.7861 61.8233 63.5599 61.6172C63.3343 61.411 63.1526 61.1374 63.0153 60.7962C62.8785 60.4469 62.8098 60.0149 62.8098 59.4991ZM63.5114 59.5229L66.1738 59.2376C66.1738 58.8487 66.069 58.5395 65.8588 58.3095C65.6492 58.0714 65.3106 57.9521 64.8428 57.9521C64.6167 57.9603 64.419 58.008 64.2497 58.0953C64.0886 58.1826 63.9513 58.2933 63.8382 58.4283C63.7256 58.5553 63.6405 58.702 63.5842 58.8685C63.5279 59.035 63.4995 59.2056 63.4995 59.3803C63.4995 59.4437 63.5037 59.4915 63.5114 59.5229ZM72.054 58.4283L72.8284 61.6649L72.1025 61.9269L71.6668 59.9037C71.6105 60.1261 71.5217 60.3561 71.4009 60.5942C71.2878 60.8318 71.1428 61.0501 70.9652 61.2486C70.7958 61.439 70.5898 61.5974 70.3482 61.7243C70.1139 61.8431 69.848 61.903 69.5496 61.903C69.0173 61.903 68.6095 61.7365 68.3276 61.4029C68.0529 61.0617 67.9161 60.5942 67.9161 59.9991C67.9161 59.658 67.9683 59.3046 68.0731 58.9401C68.1779 58.5669 68.3353 58.2298 68.5449 57.9288C68.7551 57.6272 69.0173 57.3774 69.3317 57.1789C69.6544 56.9804 70.0292 56.8814 70.4572 56.8814C70.707 56.8814 70.9249 56.9367 71.1102 57.0479C71.3038 57.151 71.4654 57.282 71.5945 57.4409C71.7235 57.5993 71.8242 57.7699 71.897 57.9521C71.9693 58.1268 72.022 58.2857 72.054 58.4283ZM70.578 57.7384C70.5217 57.7221 70.4649 57.7105 70.4086 57.7023C70.3601 57.6947 70.308 57.6907 70.2512 57.6907C70.0013 57.6907 69.7752 57.7658 69.5738 57.9166C69.3803 58.0593 69.2145 58.242 69.0777 58.4639C68.9487 58.6863 68.8475 58.9279 68.7752 59.1899C68.7107 59.4519 68.6781 59.6935 68.6781 59.9159C68.6781 60.2647 68.7551 60.5464 68.9084 60.7607C69.0612 60.9749 69.3033 61.0815 69.6342 61.0815C69.8598 61.0815 70.07 61.0105 70.2636 60.8678C70.4572 60.717 70.6224 60.5307 70.7592 60.3083C70.8965 60.0865 71.0013 59.8443 71.0741 59.5823C71.1546 59.3127 71.1949 59.063 71.1949 58.833C71.1949 58.5791 71.1428 58.3568 71.038 58.1664C70.9409 57.9684 70.7876 57.8252 70.578 57.7384ZM73.8449 61.308V54.1211L74.6435 54.0734V60.9983L75.4422 61.1887L75.3694 62.0457L74.0385 61.7837L73.8449 61.308ZM76.531 61.9741V57.6191H77.3782V62.0218L76.531 61.9741ZM77.644 56.6433L76.7974 56.8814L76.023 55.073L76.8696 54.8588L77.644 56.6433ZM79.4107 61.6888V58.0831H78.1768L78.2491 57.2145H79.58V54.7872H80.4029V57.2622H82.3874V58.1192H80.3183V61.2125L82.1453 60.8795L82.2666 61.6888L79.8464 62.1883L79.4107 61.6888ZM84.8314 61.2125L82.7261 57.6191L83.3797 57.1195L85.1582 60.2728L86.3322 56.8575L87.0095 57.2145L84.6378 64.0683L83.9847 63.6637L84.8314 61.2125ZM96.4958 58.4761C96.4715 58.7457 96.4431 59.0432 96.4111 59.3686C96.3868 59.6854 96.3626 60.0149 96.3383 60.3561L96.1814 62.3787L95.4313 62.3076L95.6006 60.0702C95.5438 60.1499 95.4514 60.2489 95.3223 60.3677C95.201 60.487 95.0477 60.6018 94.8623 60.713C94.677 60.816 94.4633 60.9074 94.2211 60.9866C93.979 61.0658 93.7167 61.1054 93.4343 61.1054C93.0471 61.1054 92.6842 61.0303 92.3456 60.8795C92.0146 60.7287 91.7286 60.5185 91.4865 60.2489C91.2444 59.9793 91.0508 59.658 90.9057 59.2848C90.7684 58.9041 90.7002 58.4877 90.7002 58.0354C90.7002 57.4328 90.7766 56.8733 90.93 56.358C91.091 55.8345 91.3089 55.3822 91.583 55.0014C91.8654 54.6125 92.2005 54.3115 92.5877 54.0972C92.9749 53.8749 93.3982 53.7637 93.8582 53.7637C94.1323 53.7637 94.3863 53.7997 94.6202 53.8708C94.8623 53.9343 95.0761 54.0216 95.2614 54.1328C95.4473 54.2358 95.6047 54.3587 95.7338 54.5019C95.8628 54.6445 95.9553 54.7872 96.012 54.9298L95.3585 55.2634C95.1969 55.0095 94.9914 54.8227 94.7415 54.7039C94.4911 54.5851 94.2289 54.5252 93.9548 54.5252C93.6161 54.5252 93.2976 54.6085 92.9992 54.7755C92.7085 54.9339 92.4545 55.1639 92.2366 55.4655C92.027 55.7589 91.8577 56.1158 91.7286 56.5362C91.6073 56.9489 91.5469 57.4048 91.5469 57.9049C91.5469 58.2141 91.5872 58.5157 91.6677 58.8091C91.7565 59.0944 91.882 59.3483 92.043 59.5707C92.2124 59.7849 92.422 59.9595 92.6724 60.0941C92.9222 60.221 93.2165 60.2845 93.5557 60.2845C93.8138 60.2845 94.0595 60.2332 94.2934 60.1301C94.5355 60.0266 94.7493 59.892 94.9351 59.7255C95.1205 59.5585 95.2697 59.3686 95.3827 59.1543C95.5035 58.932 95.5763 58.7061 95.6006 58.4761H93.519V57.7145H97.8024V58.4761H96.4958ZM102.957 58.4283L103.732 61.6649L103.005 61.9269L102.57 59.9037C102.513 60.1261 102.425 60.3561 102.304 60.5942C102.191 60.8318 102.046 61.0501 101.868 61.2486C101.699 61.439 101.493 61.5974 101.251 61.7243C101.017 61.8431 100.751 61.903 100.452 61.903C99.9201 61.903 99.5128 61.7365 99.2304 61.4029C98.9563 61.0617 98.8189 60.5942 98.8189 59.9991C98.8189 59.658 98.8716 59.3046 98.9764 58.9401C99.0812 58.5669 99.2387 58.2298 99.4483 57.9288C99.6579 57.6272 99.9201 57.3774 100.235 57.1789C100.557 56.9804 100.933 56.8814 101.36 56.8814C101.61 56.8814 101.828 56.9367 102.014 57.0479C102.207 57.151 102.368 57.282 102.497 57.4409C102.626 57.5993 102.727 57.7699 102.8 57.9521C102.873 58.1268 102.925 58.2857 102.957 58.4283ZM101.481 57.7384C101.425 57.7221 101.368 57.7105 101.311 57.7023C101.263 57.6947 101.211 57.6907 101.155 57.6907C100.904 57.6907 100.679 57.7658 100.477 57.9166C100.283 58.0593 100.118 58.242 99.9805 58.4639C99.8515 58.6863 99.7508 58.9279 99.678 59.1899C99.6135 59.4519 99.5815 59.6935 99.5815 59.9159C99.5815 60.2647 99.6579 60.5464 99.8112 60.7607C99.9645 60.9749 100.207 61.0815 100.537 61.0815C100.763 61.0815 100.973 61.0105 101.166 60.8678C101.36 60.717 101.525 60.5307 101.663 60.3083C101.8 60.0865 101.905 59.8443 101.977 59.5823C102.058 59.3127 102.098 59.063 102.098 58.833C102.098 58.5791 102.046 58.3568 101.941 58.1664C101.844 57.9684 101.691 57.8252 101.481 57.7384ZM104.627 56.953L105.377 56.7865L105.437 57.3099H109.878L110.435 57.9288V61.641L109.927 61.7126V58.571L109.443 57.9288H108.209V61.8075H107.507V58.0237H105.522L105.934 61.9269L105.159 62.0218L104.627 56.953ZM111.451 59.4991C111.451 59.063 111.516 58.6979 111.645 58.4045C111.774 58.1029 111.935 57.8653 112.129 57.6907C112.331 57.5079 112.552 57.381 112.794 57.3099C113.036 57.2307 113.27 57.1906 113.496 57.1906C113.819 57.1906 114.109 57.2383 114.367 57.3338C114.625 57.4211 114.843 57.5714 115.021 57.7856C115.206 57.9922 115.348 58.2694 115.444 58.6187C115.541 58.9675 115.589 59.396 115.589 59.9037L112.226 60.2251C112.25 60.4469 112.31 60.6378 112.407 60.7962C112.512 60.947 112.641 61.0699 112.794 61.1653C112.947 61.2603 113.113 61.3278 113.29 61.3674C113.468 61.407 113.65 61.4268 113.835 61.4268C114.142 61.4268 114.436 61.3831 114.718 61.2958C115.001 61.2085 115.21 61.1019 115.348 60.9749L115.565 61.5461C115.509 61.6253 115.424 61.7045 115.311 61.7837C115.198 61.8634 115.065 61.9304 114.912 61.9863C114.758 62.0497 114.585 62.0969 114.391 62.1289C114.206 62.1685 114.012 62.1883 113.811 62.1883C113.528 62.1883 113.246 62.1447 112.963 62.0573C112.682 61.97 112.427 61.8233 112.201 61.6172C111.975 61.411 111.794 61.1374 111.657 60.7962C111.52 60.4469 111.451 60.0149 111.451 59.4991ZM112.153 59.5229L114.815 59.2376C114.815 58.8487 114.71 58.5395 114.5 58.3095C114.291 58.0714 113.952 57.9521 113.484 57.9521C113.258 57.9603 113.061 58.008 112.891 58.0953C112.73 58.1826 112.593 58.2933 112.48 58.4283C112.367 58.5553 112.282 58.702 112.226 58.8685C112.169 59.035 112.141 59.2056 112.141 59.3803C112.141 59.4437 112.145 59.4915 112.153 59.5229Z" fill="#F2F2F2"/>
<path d="M123.387 57.877H120.805C120.52 57.877 120.289 58.1043 120.289 58.3846C120.289 58.665 120.52 58.8923 120.805 58.8923H123.387C123.672 58.8923 123.903 58.665 123.903 58.3846C123.903 58.1043 123.672 57.877 123.387 57.877Z" fill="white"/>
<path d="M123.387 57.877H120.805C120.52 57.877 120.289 58.1043 120.289 58.3846C120.289 58.665 120.52 58.8923 120.805 58.8923H123.387C123.672 58.8923 123.903 58.665 123.903 58.3846C123.903 58.1043 123.672 57.877 123.387 57.877Z" fill="white"/>
<defs>
<filter id="filter0_d_114_1452" x="0" y="0" width="125.936" height="45.1694" filterUnits="userSpaceOnUse" color-interpolation-filters="sRGB">
<feFlood flood-opacity="0" result="BackgroundImageFix"/>
<feColorMatrix in="SourceAlpha" type="matrix" values="0 0 0 0 0 0 0 0 0 0 0 0 0 0 0 0 0 0 127 0" result="hardAlpha"/>
<feOffset dx="1" dy="1"/>
<feComposite in2="hardAlpha" operator="out"/>
<feColorMatrix type="matrix" values="0 0 0 0 0 0 0 0 0 0 0 0 0 0 0 0 0 0 1 0"/>
<feBlend mode="normal" in2="BackgroundImageFix" result="effect1_dropShadow_114_1452"/>
<feBlend mode="normal" in="SourceGraphic" in2="effect1_dropShadow_114_1452" result="shape"/>
</filter>
<linearGradient id="paint0_linear_114_1452" x1="62.7257" y1="1.01562" x2="62.7257" y2="42.6464" gradientUnits="userSpaceOnUse">
<stop stop-color="#EBC03E"/>
<stop offset="1" stop-color="#C18915"/>
</linearGradient>
</defs>
</svg>
