<?xml version="1.0" standalone="no"?>
<!DOCTYPE svg PUBLIC "-//W3C//DTD SVG 20010904//EN"
 "http://www.w3.org/TR/2001/REC-SVG-20010904/DTD/svg10.dtd">
<svg version="1.0" xmlns="http://www.w3.org/2000/svg"
 width="1080.000000pt" height="500.000000pt" viewBox="0 0 1080.000000 500.000000"
 preserveAspectRatio="xMidYMid meet">

<g transform="translate(0.000000,500.000000) scale(0.100000,-0.100000)"
fill="#000000" stroke="none">
<path d="M5169 3101 c-20 -16 -21 -21 -10 -35 7 -9 19 -16 26 -16 7 0 12 -8
11 -17 0 -10 9 -22 22 -28 l22 -10 0 -308 c0 -238 -3 -308 -12 -311 -84 -22
-96 -43 -53 -92 14 -16 30 -35 36 -41 7 -10 67 -13 234 -13 129 0 235 -4 251
-10 37 -14 60 -5 72 30 10 28 14 29 79 32 76 3 92 20 52 57 -24 22 -27 58 -10
104 9 22 16 27 46 27 29 0 37 -5 45 -26 13 -34 14 -33 -15 -44 -35 -13 -31
-38 14 -88 38 -42 39 -42 109 -42 126 0 171 22 124 61 -12 9 -22 22 -22 27 0
5 -6 15 -14 21 -14 11 -117 244 -157 353 -23 63 -85 138 -114 138 -12 0 -39
-15 -60 -34 -31 -29 -37 -40 -32 -63 4 -19 -9 -69 -44 -163 -60 -164 -62 -168
-83 -151 -20 17 -52 0 -60 -32 -6 -27 -41 -37 -128 -37 -45 0 -47 1 -52 33 -9
59 -16 431 -10 495 6 57 9 63 33 68 73 15 99 45 62 70 -11 8 -21 20 -21 26 0
30 -36 37 -176 38 -124 0 -145 -2 -165 -19z m301 -11 c20 -13 12 -18 -45 -27
l-50 -9 0 -304 c0 -168 4 -322 8 -342 l8 -38 124 0 123 0 12 35 c14 42 25 44
43 8 l15 -27 15 30 c8 16 40 98 71 181 41 112 53 158 47 175 -6 17 -1 27 26
51 34 30 35 30 53 11 10 -10 46 -89 80 -174 77 -192 116 -270 143 -292 21 -17
19 -18 -69 -18 -69 0 -95 4 -104 15 -11 13 -9 15 13 15 14 0 27 6 30 13 6 17
-16 100 -36 131 -16 23 -24 26 -77 26 -67 0 -63 4 -93 -97 -14 -48 -13 -53 2
-67 10 -9 23 -16 29 -16 7 0 12 -4 12 -10 0 -6 -32 -10 -76 -10 -70 0 -76 -2
-71 -19 9 -34 -6 -44 -49 -32 -22 6 -132 11 -256 11 -178 0 -218 3 -218 14 0
7 14 16 32 20 60 12 58 1 58 338 0 339 -5 371 -54 384 -30 7 -34 20 -8 27 33
9 247 7 262 -3z"/>
<path d="M5886 2658 c-8 -13 -17 -33 -21 -45 -6 -21 -3 -23 35 -23 36 0 41 3
35 18 -3 9 -9 29 -12 45 -7 33 -18 34 -37 5z"/>
<path d="M1581 3091 c-95 -5 -116 -9 -125 -24 -9 -15 -7 -22 12 -37 12 -10 22
-22 22 -26 0 -4 7 -15 15 -24 18 -19 22 -128 18 -412 l-3 -157 -39 -11 c-47
-12 -57 -32 -30 -62 10 -13 26 -32 33 -43 13 -18 28 -20 141 -23 88 -3 130 0
140 8 21 18 18 58 -5 72 -11 7 -20 17 -20 22 0 5 -6 17 -14 25 -9 10 -15 47
-18 104 l-3 87 55 0 c100 0 100 0 93 -91 -8 -102 6 -149 68 -231 40 -54 58
-69 96 -82 26 -9 56 -16 67 -16 30 0 137 53 161 80 19 21 25 22 160 19 l140
-4 3 92 c2 84 1 93 -18 103 -11 6 -20 17 -20 25 0 8 -8 19 -18 24 -23 12 -44
-4 -61 -47 -22 -53 -26 -45 -21 45 5 79 3 87 -17 103 -12 10 -20 19 -18 22 3
3 -4 13 -15 23 -19 17 -21 17 -39 1 -17 -16 -19 -16 -25 6 -3 13 -6 26 -6 31
0 4 36 7 79 7 l79 0 32 -40 c36 -45 52 -49 73 -19 12 16 19 19 34 11 14 -8 25
-5 48 14 17 13 33 24 38 24 4 0 7 -63 7 -140 0 -128 -2 -140 -18 -140 -41 0
-57 -51 -22 -70 11 -6 20 -17 20 -26 0 -24 48 -35 143 -32 73 2 92 6 101 21 8
12 8 22 -2 35 -52 73 -52 71 -52 215 l0 137 33 0 c24 0 42 -9 65 -33 28 -29
32 -39 32 -90 0 -65 20 -113 79 -188 83 -108 191 -134 296 -74 49 28 76 57
108 113 l24 42 18 -39 c9 -22 38 -62 64 -89 38 -42 54 -51 93 -57 67 -10 123
2 158 35 27 25 33 27 54 17 12 -7 21 -17 19 -23 -8 -25 26 -35 117 -32 77 3
95 6 104 21 9 15 7 22 -13 38 -20 16 -26 32 -29 80 -4 54 -3 59 16 59 16 0 24
-14 42 -72 53 -174 126 -254 262 -288 43 -11 55 -10 115 11 37 13 82 38 100
55 40 38 45 80 11 94 -18 7 -9 9 38 9 81 1 97 18 60 62 -18 21 -24 38 -21 55
3 13 7 35 10 49 5 21 11 25 44 25 26 0 41 -5 45 -16 11 -30 6 -49 -16 -59 -27
-12 -26 -44 3 -64 10 -7 19 -20 19 -27 0 -8 12 -19 26 -24 28 -11 141 -11 189
-1 36 7 44 35 16 51 -12 6 -21 16 -21 22 0 7 -8 21 -19 32 -16 18 -43 80 -167
377 -22 51 -78 109 -106 109 -14 0 -39 -15 -61 -38 -31 -32 -36 -42 -29 -62 7
-18 -2 -53 -38 -149 -77 -204 -79 -208 -110 -221 -37 -15 -44 -36 -21 -59 11
-11 25 -29 31 -41 10 -18 7 -22 -26 -36 -41 -17 -85 -11 -126 17 -21 16 -30
35 -44 97 -9 42 -23 91 -30 107 -12 28 -11 32 19 63 25 26 31 41 32 80 1 26
-2 61 -6 77 -13 46 -87 121 -134 134 -23 6 -122 11 -229 11 -160 0 -192 -3
-207 -16 -14 -13 -16 -21 -7 -42 13 -35 2 -277 -15 -312 -10 -20 -20 -25 -47
-25 -31 0 -35 3 -42 35 -10 46 -2 214 12 239 15 28 12 48 -7 63 -10 7 -23 22
-29 33 -10 17 -23 20 -97 23 -79 3 -86 1 -92 -18 -4 -14 2 -30 19 -51 19 -22
26 -42 26 -71 l0 -40 -47 62 c-52 70 -85 94 -160 116 -67 20 -112 11 -169 -32
-36 -28 -46 -31 -50 -19 -4 8 -12 15 -19 15 -7 0 -16 11 -19 24 -8 31 -30 35
-81 18 -29 -10 -83 -13 -200 -10 -158 3 -160 3 -170 -19 -5 -13 -12 -23 -15
-23 -3 0 -10 10 -15 23 -10 22 -13 22 -209 25 -129 1 -203 -1 -211 -8 -15 -12
-9 -44 11 -61 11 -9 14 -50 14 -193 l0 -182 -31 -11 c-26 -10 -31 -16 -27 -38
3 -14 1 -25 -3 -25 -12 0 -11 41 2 130 11 70 10 79 -9 120 -12 25 -31 56 -42
70 l-21 26 23 49 c26 57 30 173 9 214 -36 67 -87 109 -160 131 -78 25 -134 29
-280 21z m279 -45 c25 -9 58 -27 74 -39 27 -22 29 -28 30 -103 1 -93 -21 -154
-63 -175 -23 -11 -24 -13 -6 -17 37 -8 64 -34 88 -82 24 -47 24 -50 10 -122
-33 -167 18 -235 135 -181 l37 17 -37 4 c-46 4 -49 16 -8 31 l30 10 0 192 c0
180 -1 194 -20 214 l-21 22 180 6 c99 4 187 4 195 1 12 -5 16 -20 16 -59 0
-64 -14 -77 -37 -36 -27 45 -54 53 -156 45 l-89 -7 6 -30 c3 -16 6 -56 6 -88
l0 -59 34 0 c25 0 40 7 55 27 12 14 24 24 26 21 7 -7 -6 -148 -14 -148 -3 0
-14 14 -23 30 -14 24 -24 30 -53 30 l-35 0 6 -72 c4 -40 7 -74 8 -74 0 -1 44
-4 96 -5 l95 -4 26 48 c30 56 39 48 39 -36 0 -61 -9 -80 -30 -67 -19 12 -273
13 -266 1 14 -22 -103 -91 -154 -91 -14 0 -44 9 -68 20 -36 16 -47 29 -69 76
-24 53 -25 64 -20 156 5 93 4 101 -18 126 -22 25 -29 27 -123 30 -76 3 -100 1
-104 -10 -2 -7 -2 -65 1 -128 l6 -115 38 -18 c20 -10 37 -23 37 -28 0 -12
-247 -12 -254 0 -6 10 16 21 41 21 39 0 42 24 43 327 l0 291 -31 26 c-17 14
-35 26 -40 26 -6 0 -7 5 -3 11 11 18 328 6 384 -15z m2949 -366 c88 -217 126
-295 152 -314 23 -16 20 -17 -75 -14 -69 2 -101 7 -104 16 -2 7 6 12 22 12 23
0 26 4 26 33 0 17 -11 56 -25 85 l-24 52 -59 0 c-68 0 -75 -6 -90 -70 -6 -25
-14 -55 -18 -68 -5 -19 -2 -25 25 -35 17 -6 31 -15 31 -19 0 -12 -188 -10
-195 2 -3 5 6 12 20 16 32 8 47 37 115 219 34 91 50 150 47 169 -3 23 3 35 27
57 26 23 34 26 49 16 10 -7 44 -77 76 -157z m-1839 121 c0 -22 -5 -52 -10 -67
l-11 -27 -33 32 c-30 29 -39 32 -82 29 l-49 -3 0 -165 c1 -173 7 -203 45 -215
43 -14 5 -25 -85 -25 -94 0 -132 13 -75 25 21 5 32 14 36 32 10 40 -2 308 -15
332 -16 29 -59 27 -101 -4 -19 -14 -36 -25 -38 -25 -4 0 5 48 14 83 5 15 22
17 182 17 97 0 184 5 192 10 25 16 30 12 30 -29z m315 5 c63 -29 100 -72 120
-138 32 -109 10 -197 -66 -262 -111 -94 -244 -65 -309 68 -28 57 -31 71 -25
118 14 113 56 186 130 226 33 18 97 13 150 -12z m921 -9 c35 -18 44 -40 44
-108 0 -51 -23 -84 -71 -101 -33 -11 -38 -28 -10 -35 21 -5 35 -33 52 -108 22
-101 40 -134 92 -175 76 -61 159 -56 235 13 l22 20 0 -21 c0 -27 -38 -56 -108
-83 -50 -18 -63 -20 -107 -10 -71 17 -132 55 -154 99 -10 20 -31 76 -46 125
-32 101 -64 137 -121 137 l-35 0 3 -87 c3 -82 5 -88 28 -100 22 -11 14 -13
-65 -12 -49 0 -83 3 -75 6 48 18 50 25 50 230 l0 194 -30 10 c-55 20 -31 28
83 31 127 3 168 -2 213 -25z m-630 -2 c-13 -19 -16 -52 -17 -149 0 -172 18
-213 101 -221 34 -4 46 0 65 19 31 31 37 81 33 244 l-3 132 59 0 59 0 -21 -23
c-19 -20 -22 -35 -22 -99 0 -103 -18 -224 -40 -275 -25 -56 -65 -76 -141 -71
-39 3 -65 11 -80 24 -52 47 -83 159 -82 299 1 84 -1 92 -25 118 l-26 27 78 0
78 0 -16 -25z m317 -402 c-24 -18 -26 -11 -15 44 6 27 15 103 19 169 l8 119 3
-160 c2 -141 1 -161 -15 -172z m-1569 61 c9 -8 14 -20 11 -25 -8 -12 -35 -12
-35 0 0 5 -3 16 -6 25 -8 21 10 21 30 0z"/>
<path d="M1637 2973 c-4 -3 -7 -51 -7 -105 l0 -98 90 0 c112 0 144 14 161 69
14 46 8 77 -22 114 -20 26 -24 27 -118 27 -54 0 -101 -3 -104 -7z m221 -99 c5
-51 -23 -75 -96 -81 l-62 -6 0 62 0 62 78 -3 77 -3 3 -31z"/>
<path d="M4701 2649 c-30 -48 -27 -59 15 -59 l36 0 -7 38 c-10 54 -21 59 -44
21z"/>
<path d="M3160 2767 c-51 -17 -84 -89 -83 -177 0 -75 17 -115 63 -154 44 -37
89 -35 136 6 46 41 64 83 63 150 -1 132 -80 209 -179 175z m120 -77 c29 -16
42 -78 29 -139 -14 -65 -56 -111 -104 -111 -42 0 -55 17 -62 82 -11 119 62
208 137 168z"/>
<path d="M4006 2704 c8 -90 6 -88 72 -81 62 7 92 30 92 72 0 37 -33 57 -104
62 l-65 6 5 -59z m134 -34 c0 -5 -3 -10 -7 -10 -5 0 -18 -3 -29 -6 -14 -4 -23
0 -27 10 -5 13 1 16 28 16 19 0 35 -4 35 -10z"/>
<path d="M6476 3090 c-100 -4 -121 -8 -130 -23 -9 -15 -7 -22 12 -37 12 -10
22 -23 22 -29 0 -6 9 -16 20 -23 19 -12 20 -24 20 -283 0 -285 -1 -295 -46
-295 -12 0 -27 -7 -34 -15 -14 -17 -4 -55 15 -55 7 0 16 -11 19 -24 8 -31 29
-36 159 -36 160 0 177 16 106 102 l-42 49 5 70 c3 38 1 72 -3 75 -33 20 57 32
130 18 27 -6 30 -9 24 -33 -12 -45 -7 -164 9 -201 41 -95 141 -180 213 -180
36 0 126 43 155 74 l24 27 156 -1 c85 0 193 3 240 7 72 7 85 11 88 27 3 11 -5
26 -18 36 -20 15 -21 21 -13 71 8 54 8 54 47 57 24 2 42 -2 47 -10 15 -24 9
-53 -13 -63 -38 -18 -34 -31 33 -104 14 -16 47 -17 358 -15 299 1 346 4 362
18 25 21 24 51 -3 70 -19 14 -23 28 -28 115 -3 55 -4 130 -2 165 4 60 6 65 23
55 11 -5 19 -16 19 -24 0 -8 8 -19 18 -24 14 -7 25 -4 48 14 16 13 32 24 37
25 4 0 7 -63 7 -140 0 -130 -1 -140 -19 -140 -10 0 -24 -7 -31 -15 -14 -17 -4
-55 15 -55 7 0 16 -11 19 -24 7 -30 30 -36 137 -36 71 0 89 3 102 18 22 24 21
38 0 54 -33 24 -41 62 -47 201 l-6 137 33 0 c24 0 41 -9 62 -30 45 -47 70 -40
86 24 4 18 7 -34 8 -124 l1 -156 -30 -11 c-37 -14 -38 -31 -5 -69 14 -16 30
-35 36 -42 7 -9 60 -13 189 -14 99 -1 192 -2 208 -2 l27 -1 3 93 c2 77 0 93
-13 99 -9 3 -21 17 -26 30 -13 35 -49 27 -71 -16 -29 -59 -34 -53 -26 36 7 80
6 88 -12 100 -11 8 -20 20 -20 26 0 7 -9 18 -21 25 -18 11 -24 11 -39 -3 -16
-15 -18 -14 -22 9 -3 14 -3 28 0 31 3 3 38 5 78 5 l73 0 33 -40 c22 -28 39
-40 53 -38 18 3 20 11 23 79 3 69 1 78 -23 103 -14 15 -25 31 -25 37 0 13
-386 12 -411 -1 -12 -7 -19 -7 -19 -1 0 24 -38 31 -77 15 -31 -14 -66 -16
-196 -12 -128 4 -162 2 -173 -9 -8 -8 -14 -19 -14 -24 0 -19 -19 -8 -22 14 -3
21 -8 22 -97 25 -75 2 -97 0 -112 -14 -20 -18 -16 -36 18 -77 22 -27 23 -37
23 -165 l0 -136 -29 34 c-28 34 -29 35 -49 16 -12 -10 -22 -30 -24 -45 -2 -21
-9 -27 -35 -29 -39 -4 -41 6 -45 165 -3 111 -3 111 25 133 32 25 36 60 8 67
-11 3 -21 15 -23 27 -3 20 -8 21 -112 21 -94 0 -110 -2 -120 -18 -9 -14 -7
-21 8 -32 36 -27 43 -59 49 -231 l6 -169 -33 71 c-19 39 -55 124 -81 190 -52
129 -110 214 -148 214 -12 0 -38 -16 -59 -36 -30 -30 -36 -42 -31 -65 3 -19
-11 -71 -47 -168 -29 -78 -55 -141 -59 -141 -4 0 -17 13 -29 30 -28 38 -46 31
-76 -29 l-24 -46 5 91 c5 82 4 92 -14 105 -11 8 -22 22 -26 32 -10 26 -35 32
-57 12 -19 -18 -20 -17 -20 13 l0 32 74 0 c74 0 74 0 109 -40 57 -67 87 -50
87 51 0 53 -4 71 -17 81 -10 7 -23 22 -29 33 -10 19 -24 20 -200 23 -104 1
-199 0 -211 -3 -27 -6 -32 -49 -8 -59 21 -8 23 -386 2 -386 -23 0 -48 -35 -41
-55 5 -13 4 -16 -5 -11 -12 8 -10 51 10 150 8 44 7 55 -16 101 -14 29 -33 59
-44 69 -18 16 -18 18 5 74 25 60 31 134 15 189 -13 45 -69 112 -113 134 -44
23 -152 49 -188 47 -14 -1 -79 -4 -144 -8z m288 -50 c79 -33 97 -60 98 -141 1
-75 -20 -134 -60 -166 -20 -17 -23 -23 -10 -23 28 0 76 -48 93 -93 13 -34 14
-52 6 -87 -6 -25 -11 -74 -11 -109 0 -53 4 -69 22 -88 26 -28 75 -30 121 -5
l32 17 -37 3 c-46 4 -49 18 -8 27 l30 7 0 203 c0 197 -1 203 -22 217 -20 13
-4 15 160 21 100 3 189 4 197 1 11 -5 15 -22 15 -65 0 -65 -11 -75 -35 -29
-22 43 -54 52 -150 44 l-81 -6 1 -89 0 -89 37 0 c28 0 41 6 57 28 l20 27 1
-72 c0 -81 -12 -98 -35 -53 -13 25 -22 30 -50 30 -21 0 -35 -5 -36 -12 -3 -39
3 -124 9 -129 4 -4 49 -9 101 -11 l93 -4 21 43 c12 24 25 43 29 43 4 0 8 -25
8 -55 0 -30 2 -55 5 -55 2 0 15 5 29 11 27 13 45 53 118 254 25 70 37 118 33
134 -5 19 1 30 27 51 38 32 59 27 76 -17 42 -112 101 -253 139 -335 38 -81 50
-98 68 -98 43 0 45 15 36 215 -9 188 -9 190 -35 210 -15 12 -23 24 -20 28 10
10 174 9 174 -1 0 -5 -12 -19 -26 -33 l-26 -24 6 -155 c9 -216 7 -210 70 -210
81 0 94 7 101 51 4 21 10 39 15 39 7 0 20 -126 14 -140 -1 -3 -111 -3 -245 0
-181 4 -243 8 -247 18 -2 7 6 12 23 12 26 0 27 2 22 38 -2 22 -14 60 -25 85
l-21 47 -59 0 c-36 0 -64 -5 -70 -12 -5 -7 -17 -42 -26 -78 -16 -60 -16 -66
-1 -75 55 -33 53 -34 -52 -35 -64 0 -103 -4 -103 -10 0 -7 -6 -7 -19 0 -11 5
-76 10 -145 10 -115 0 -125 -1 -131 -20 -3 -11 -34 -33 -70 -51 -52 -25 -73
-30 -102 -26 -104 17 -164 146 -134 288 l12 54 -35 33 c-35 31 -38 32 -126 32
-78 0 -91 -2 -100 -19 -7 -14 -7 -22 1 -27 7 -4 8 -36 4 -100 -8 -104 -3 -118
46 -129 16 -4 29 -13 29 -21 0 -11 -24 -14 -125 -14 -79 0 -125 4 -125 10 0 6
13 13 30 16 16 4 34 11 39 18 13 15 24 406 16 523 -8 95 -8 95 -41 115 -19 11
-31 24 -28 30 4 6 68 8 168 6 144 -3 167 -6 220 -28z m2089 -207 c6 -9 -10
-113 -18 -121 -3 -3 -20 9 -38 26 -27 27 -41 32 -79 32 -26 0 -48 -4 -50 -10
-1 -5 -1 -84 2 -176 5 -165 5 -166 32 -189 15 -13 24 -26 21 -29 -9 -9 -193
-7 -193 2 0 4 14 13 31 19 l31 12 -3 169 c-4 182 -10 202 -56 202 -14 0 -37
-8 -51 -18 -50 -35 -50 -35 -39 18 l10 50 176 0 c97 0 183 5 191 10 18 12 27
12 33 3z m431 -9 c12 -5 16 -21 16 -65 0 -67 -12 -74 -41 -25 -25 42 -50 49
-150 40 l-79 -7 0 -88 0 -89 40 0 c33 0 42 4 52 25 25 55 35 18 22 -79 -7 -51
-20 -60 -30 -21 -10 39 -90 50 -88 12 0 -9 1 -41 2 -71 l2 -54 93 -4 c104 -5
119 2 137 58 17 51 30 31 30 -46 0 -64 -10 -94 -25 -70 -4 6 -76 10 -191 10
-172 0 -227 9 -154 25 l30 7 0 197 c0 189 -1 199 -21 217 -23 21 -36 19 288
32 28 1 58 -1 67 -4z m-920 -25 c-16 -18 -19 -40 -22 -167 -4 -179 2 -229 29
-237 23 -8 25 -31 3 -39 -9 -3 -51 -6 -95 -6 -62 0 -77 3 -73 14 3 7 16 19 30
27 l26 13 -4 172 -3 173 -28 29 c-15 15 -24 31 -20 35 3 4 45 7 91 7 l85 0
-19 -21z m-1153 -339 c24 -14 25 -40 0 -40 -12 0 -20 9 -23 25 -6 28 -4 29 23
15z m1913 -6 c22 -21 20 -34 -4 -34 -11 0 -20 4 -20 9 0 5 -3 16 -6 25 -8 21
10 21 30 0z"/>
<path d="M6526 2972 c-2 -4 -2 -52 1 -105 l6 -97 94 0 c91 0 96 1 124 29 23
23 29 38 29 71 0 46 -21 94 -45 104 -24 9 -203 7 -209 -2z m224 -100 c0 -54
-26 -75 -100 -80 l-60 -4 0 61 0 61 80 0 80 0 0 -38z"/>
<path d="M7600 2638 l-19 -43 35 -3 c20 -2 38 -1 41 1 8 8 -17 87 -28 87 -5 0
-19 -19 -29 -42z"/>
</g>
</svg>
