<svg width="85" height="44" viewBox="0 0 85 44" fill="none" xmlns="http://www.w3.org/2000/svg">
<g filter="url(#filter0_d_121_276)">
<path d="M12.0587 8.22976L12.1437 8.31215H12.6963C14.2264 8.31215 15.5629 7.63468 16.7058 6.27972H16.6208L12.0587 8.14735V8.22976ZM5.52735 6.23849L5.42818 5.77162C5.09758 5.86314 4.93231 5.96843 4.93231 6.08744L5.52735 6.23849ZM9.84856 5.49692C9.65019 5.79907 9.50379 6.11949 9.40936 6.45822H9.56519C9.94299 6.45822 10.4767 6.33462 11.1662 6.08744V5.89519C10.6372 5.72126 10.198 5.58851 9.84856 5.49692ZM8.98432 18.1173L8.63009 21.0973L8.89929 24.0224L8.92762 24.297L8.97012 24.558L9.32436 25.1073L9.66436 25.8351C8.75762 26.3295 7.93585 26.5538 7.19915 26.508L6.95828 26.4531L5.89568 26.6316C5.19678 26.7507 4.66781 26.6316 4.30891 26.2746L3.78471 25.7802V25.6841C3.78471 25.6292 3.94054 25.5879 4.25224 25.5605L4.73394 25.5193L4.69144 24.97C4.93701 24.6221 5.14955 24.2421 5.32901 23.8302L5.28651 23.2259L5.48485 21.7977L5.68318 20.3695L6.06571 18.2547L5.93821 17.211L5.66901 15.8377L5.44231 15.1648L5.99488 15.4944L5.73988 14.2996L6.32075 14.4644L6.39158 13.9563L6.19325 13.5718L6.27821 13.5581L5.54151 8.76535C3.82247 8.10616 3.04325 8.0146 3.20382 8.49068L1.03613 9.54811L1.24865 7.25472L3.47301 4.97512C1.85787 5.89062 1.83426 5.57477 3.40217 4.02756H4.12474L4.93231 3.83528L7.59589 3.28598V3.47824H7.69502C8.42232 3.47824 10.3255 3.94058 13.4047 4.86525L14.2122 4.97512C15.4212 4.47159 17.3811 4.06418 20.0919 3.7529C20.6209 3.48738 20.8853 3.29971 20.8853 3.18985L20.7153 2.53068C21.0081 1.29473 21.3906 0.676758 21.8629 0.676758L21.9621 0.759153V0.855283L21.7779 1.69298L21.8629 2.99759H21.9621C23.5205 2.79618 24.5312 2.45743 24.994 1.98137L25.2632 1.88524C26.6894 2.1782 27.4025 2.36588 27.4025 2.44828V2.53068L26.0707 3.09372L25.8016 3.18985L24.7248 2.99759H24.4698C23.0341 3.31802 22.3163 3.56979 22.3163 3.7529C23.8464 3.7529 25.5701 4.46702 27.4875 5.89519H27.6717C27.6717 4.7142 28.2951 4.12368 29.5419 4.12368V4.49447L31.327 4.02756L31.4971 4.21981C31.2137 4.90644 30.8312 5.24975 30.3495 5.24975L30.2645 5.33216V5.52444H30.3495L31.0578 5.42828L31.157 5.52444V5.70295C30.8831 5.70295 30.3731 5.98675 29.6269 6.55435L29.2869 6.6505V6.92513L31.412 7.29592H32.0354C33.1405 7.29592 34.5384 6.85649 36.2292 5.97757L37.7451 5.62053C38.1417 5.62053 38.9448 5.89979 40.1534 6.45822C40.8241 5.70751 41.4194 5.33216 41.9388 5.33216H42.3921L42.5621 5.52444L41.8538 6.27972V6.45822H41.9388C42.2884 6.45822 42.9729 6.61388 43.9929 6.92513C43.2939 7.48363 42.5479 7.76286 41.7546 7.76286H41.5846L41.4996 7.6667L41.2304 7.76286L41.3151 8.22976H41.2304C40.7864 8.22976 40.2529 7.7308 39.6292 6.73292C39.0249 6.35756 38.3971 6.16985 37.7451 6.16985C36.8951 6.38958 35.6812 6.86106 34.1039 7.58432V7.6667C34.1039 7.79487 34.4865 7.9551 35.2514 8.14735L37.0367 8.50439L37.1217 8.61426V8.69667L36.5126 8.88895V8.9713C36.5126 9.09947 36.6871 9.19563 37.0367 9.25974C37.0744 9.57099 37.2254 9.72664 37.4901 9.72664V9.91889L37.2206 10.0013L36.2292 9.80903V10.0013H36.0592L34.7131 8.50439C34.4298 8.33046 33.0319 8.17483 30.5195 8.03752C29.6411 7.77199 27.9503 7.03043 25.4474 5.81281H25.3623V5.89519L25.8016 7.29592V7.39207L25.079 7.11741H24.909L24.824 7.58432C24.4556 7.16317 24.2714 6.7558 24.2714 6.36213H24.1014L23.7472 6.6505L23.6622 6.55435H23.563L23.9314 5.52444V5.42828C23.4402 5.05293 22.7838 4.86525 21.9621 4.86525C19.5819 5.2223 18.3918 5.62967 18.3918 6.08744L17.3292 7.39207V7.58432L17.9384 7.47445L19.1144 7.58432H19.1993C19.1993 7.11741 19.7613 6.80613 20.8853 6.6505C21.367 6.76037 21.6079 6.87937 21.6079 7.00755V7.11741C21.1451 7.11741 20.8475 7.27304 20.7153 7.58432V7.6667H21.3387C21.8487 7.6667 22.2076 7.85441 22.4154 8.22976C22.4154 8.35794 22.0282 8.44949 21.2537 8.50439L20.9845 8.61426V8.69667L20.2619 8.50439V8.7928L20.8003 9.53436V9.80903H20.7153C20.1675 9.80903 19.6905 9.34669 19.2844 8.42204L18.576 8.14735H17.5984C17.2583 8.14735 15.9502 8.58224 13.6739 9.45195L12.1437 9.63049L10.1036 9.34208L9.19682 9.32838L9.26766 15.0275L10.9678 15.4257L12.0729 15.4669L13.5605 15.1236L14.864 14.1623L14.7506 15.7416L15.034 17.623L14.7931 18.2547L13.7022 17.4994H11.8179L10.4578 17.5955L9.15432 17.6916L8.98432 18.1173ZM5.59818 25.4369L9.67853 24.7228L11.7612 24.4893L13.8297 24.7914L15.5299 25.2034L17.2442 25.8763L19.7235 26.3295L21.1687 26.3982L22.713 26.2059L23.2797 25.8763L22.9113 26.5767L21.027 27.4144L18.916 27.538L18.4059 27.2771L19.341 27.7852L20.517 28.307L19.0718 28.4306L17.1733 28.1834L16.0824 27.8538L13.5464 27.538L12.0021 27.6067H10.8403L9.82023 27.9911L7.34082 28.2383L6.10825 28.307L4.80478 27.4144L4.66311 26.4531L4.94648 25.3682L5.59818 25.4369ZM25.334 25.3545L25.2774 25.2446C25.9007 25.5101 25.4237 25.6016 23.8464 25.5193H23.6622C21.8487 25.5193 20.2572 24.5442 18.8877 22.5942C18.0471 21.2667 17.6267 20.0445 17.6267 18.9276C17.7778 14.9359 19.0104 12.3679 21.3245 11.2235C22.4202 10.7383 23.3694 10.4957 24.1723 10.4957C25.7024 10.4957 27.1475 11.0679 28.5076 12.2122H28.5926C28.7626 12.2122 29.079 11.8827 29.5419 11.2235H29.7261L29.9669 11.4982V13.5168C29.9669 15.2289 29.8583 16.0849 29.6411 16.0849C29.4333 16.0849 28.9374 15.412 28.1534 14.0662C27.1522 13.2148 26.0613 12.789 24.8806 12.789H23.6197C22.3824 13.0454 21.504 13.5351 20.9845 14.2584C20.4933 15.6225 20.2053 16.8127 20.1203 17.8289C19.8747 20.4473 20.9042 22.228 23.2088 23.171H24.7106C25.164 23.171 25.6126 23.1572 26.0566 23.1298C26.5572 23.0108 27.2514 22.8505 28.1393 22.6491C28.706 21.9075 29.3105 21.2026 29.9528 20.5343C30.2361 21.6237 30.3542 22.5622 30.3069 23.3495L30.1653 25.121L29.8961 25.3957L29.7119 25.3819C29.2207 24.7136 28.8855 24.3749 28.706 24.3657H28.621C27.3931 25.2538 26.2974 25.5834 25.334 25.3545ZM32.2621 11.0038H33.0555C35.1619 10.9214 36.3046 11.0953 36.4842 11.5256C35.6056 12.2214 35.1664 13.0912 35.1664 14.1349V16.3321H35.6909L40.9754 16.6479V13.5031L39.3884 11.6217V11.3059L40.7063 11.0038H42.8313L44.6729 11.3059V11.6217L43.3558 13.5031V23.2259C43.3558 23.647 43.7051 23.8576 44.4038 23.8576L44.6729 24.1734V24.4893L44.1491 25.1073H40.4513L39.1334 24.7914V24.1734C40.3614 24.1734 40.9754 23.8576 40.9754 23.2259V18.2135H34.8972L34.8831 18.8452V19.1473C34.9494 22.2875 35.1336 23.8576 35.4356 23.8576C35.9552 23.8576 36.2151 24.0682 36.2151 24.4893L35.6909 25.1073H31.9929L30.6753 24.7914V24.1734H31.9929L32.5171 23.5418V13.5031C32.0165 12.4594 31.4923 11.9376 30.9445 11.9376V11.3059L32.2621 11.0038ZM51.9128 11.0862H51.9698C52.4038 11.0862 52.8243 11.1732 53.2306 11.3471C53.6083 11.457 54.005 11.5897 54.4206 11.7454C56.933 12.8165 58.2743 15.2289 58.4443 18.9825C58.4443 20.0353 57.9861 21.1843 57.0701 22.4294C55.6721 24.1506 54.062 25.0661 52.239 25.176C52.05 25.2034 51.8516 25.2171 51.6436 25.2171H51.4736C49.7076 25.2171 48.1538 24.297 46.8124 22.4569C46.0001 21.2118 45.5941 20.0628 45.5941 19.0099C45.7264 15.65 46.6991 13.3658 48.5124 12.1573C49.3814 11.4249 50.3119 11.0587 51.304 11.0587C51.5019 11.0587 51.7051 11.0679 51.9128 11.0862ZM51.9553 12.7341H51.559C49.7643 13.0637 48.8669 13.6084 48.8669 14.3683C48.2153 15.6409 47.8894 16.7578 47.8894 17.7191C47.8894 20.6579 48.9519 22.5438 51.0773 23.377H52.2248C54.6615 22.5622 55.8801 20.667 55.8801 17.6916C55.8801 16.7303 55.5163 15.6088 54.789 14.3271C54.789 13.5947 53.8446 13.0637 51.9553 12.7341ZM69.3817 11.1823H71.4649L72.159 11.3059V14.794L71.8753 15.0549H71.7482C71.6062 15.0549 71.186 14.4553 70.487 13.256C70.043 12.908 69.486 12.7341 68.8153 12.7341L63.9413 12.8577V13.9014L64.225 14.794L64.0833 18.1585H65.6133C66.18 18.1585 66.69 17.687 67.1433 16.744L67.285 16.6067H67.427L67.71 16.8676L67.5683 19.7103V20.3558L67.427 21.2621H67.0158C66.8082 21.2621 66.5718 20.786 66.3075 19.8339L65.755 19.4494H63.9413L63.8142 20.0948L64.0833 21.0012V23.0611L64.225 23.7065H68.4045L69.6512 23.8439C70.0382 23.8439 70.5958 22.8963 71.3228 21.0012C71.6912 21.0836 71.8753 21.3399 71.8753 21.7702V25.1347L71.7482 25.7802H71.4649C70.9638 25.4323 70.5437 25.2583 70.2037 25.2583H60.4705C59.9888 25.2583 59.71 25.1302 59.6343 24.8738C59.6343 24.5992 60.1916 24.384 61.3063 24.2284L61.4476 24.1048V12.5968C61.4383 12.4228 61.0181 12.0795 60.1871 11.5668L60.3285 11.4432V11.3059L69.3817 11.1823ZM78.591 10.9351H79.0444L81.7222 11.3196L82.1044 11.2372V11.3196L80.5747 13.5168C80.329 12.876 79.5875 12.5556 78.3502 12.5556H77.5849C76.7635 13.2056 76.2677 13.6862 76.0973 13.9975V14.6841C76.3807 15.5264 77.8495 16.4465 80.5035 17.4444C82.1185 18.6987 82.9264 19.9621 82.9264 21.2347C82.9264 22.0037 82.5014 23.0886 81.651 24.4893C80.7637 25.1485 79.715 25.4781 78.506 25.4781H77.741C76.8814 25.4781 75.71 25.327 74.2274 25.0249H74.0715C73.9679 25.0249 73.9157 25.0981 73.9157 25.2446H73.8449V24.1872L73.6887 22.4432C73.8307 22.1044 73.982 21.8801 74.1424 21.7702C74.6143 23.1252 75.4882 23.8027 76.7635 23.8027H77.5282C78.9452 23.7111 79.7904 23.3678 80.0644 22.7727L80.4185 22.2234C80.4185 20.6945 79.0444 19.4814 76.296 18.5843C74.303 17.3849 73.3065 16.1993 73.3065 15.0275C73.3065 13.9746 74.095 12.8394 75.6724 11.6217C76.7494 11.164 77.722 10.9351 78.591 10.9351Z" fill="url(#paint0_linear_121_276)"/>
<mask id="mask0_121_276" style="mask-type:luminance" maskUnits="userSpaceOnUse" x="0" y="0" width="84" height="30">
<path d="M83.6179 0H0V29.4462H83.6179V0Z" fill="white"/>
<path d="M12.0587 8.22976L12.1437 8.31215H12.6963C14.2264 8.31215 15.5629 7.63468 16.7058 6.27972H16.6208L12.0587 8.14735V8.22976ZM5.52735 6.23849L5.42818 5.77162C5.09758 5.86314 4.93231 5.96843 4.93231 6.08744L5.52735 6.23849ZM9.84856 5.49692C9.65019 5.79907 9.50379 6.11949 9.40936 6.45822H9.56519C9.94299 6.45822 10.4767 6.33462 11.1662 6.08744V5.89519C10.6372 5.72126 10.198 5.58851 9.84856 5.49692ZM8.98432 18.1173L8.63009 21.0973L8.89929 24.0224L8.92762 24.297L8.97012 24.558L9.32436 25.1073L9.66436 25.8351C8.75762 26.3295 7.93585 26.5538 7.19915 26.508L6.95828 26.4531L5.89568 26.6316C5.19678 26.7507 4.66781 26.6316 4.30891 26.2746L3.78471 25.7802V25.6841C3.78471 25.6292 3.94054 25.5879 4.25224 25.5605L4.73394 25.5193L4.69144 24.97C4.93701 24.6221 5.14955 24.2421 5.32901 23.8302L5.28651 23.2259L5.48485 21.7977L5.68318 20.3695L6.06571 18.2547L5.93821 17.211L5.66901 15.8377L5.44231 15.1648L5.99488 15.4944L5.73988 14.2996L6.32075 14.4644L6.39158 13.9563L6.19325 13.5718L6.27821 13.5581L5.54151 8.76535C3.82247 8.10616 3.04325 8.0146 3.20382 8.49068L1.03613 9.54811L1.24865 7.25472L3.47301 4.97512C1.85787 5.89062 1.83426 5.57477 3.40217 4.02756H4.12474L4.93231 3.83528L7.59589 3.28598V3.47824H7.69502C8.42232 3.47824 10.3255 3.94058 13.4047 4.86525L14.2122 4.97512C15.4212 4.47159 17.3811 4.06418 20.0919 3.7529C20.6209 3.48738 20.8853 3.29971 20.8853 3.18985L20.7153 2.53068C21.0081 1.29473 21.3906 0.676758 21.8629 0.676758L21.9621 0.759153V0.855283L21.7779 1.69298L21.8629 2.99759H21.9621C23.5205 2.79618 24.5312 2.45743 24.994 1.98137L25.2632 1.88524C26.6894 2.1782 27.4025 2.36588 27.4025 2.44828V2.53068L26.0707 3.09372L25.8016 3.18985L24.7248 2.99759H24.4698C23.0341 3.31802 22.3163 3.56979 22.3163 3.7529C23.8464 3.7529 25.5701 4.46702 27.4875 5.89519H27.6717C27.6717 4.7142 28.2951 4.12368 29.5419 4.12368V4.49447L31.327 4.02756L31.4971 4.21981C31.2137 4.90644 30.8312 5.24975 30.3495 5.24975L30.2645 5.33216V5.52444H30.3495L31.0578 5.42828L31.157 5.52444V5.70295C30.8831 5.70295 30.3731 5.98675 29.6269 6.55435L29.2869 6.6505V6.92513L31.412 7.29592H32.0354C33.1405 7.29592 34.5384 6.85649 36.2292 5.97757L37.7451 5.62053C38.1417 5.62053 38.9448 5.89979 40.1534 6.45822C40.8241 5.70751 41.4194 5.33216 41.9388 5.33216H42.3921L42.5621 5.52444L41.8538 6.27972V6.45822H41.9388C42.2884 6.45822 42.9729 6.61388 43.9929 6.92513C43.2939 7.48363 42.5479 7.76286 41.7546 7.76286H41.5846L41.4996 7.6667L41.2304 7.76286L41.3151 8.22976H41.2304C40.7864 8.22976 40.2529 7.7308 39.6292 6.73292C39.0249 6.35756 38.3971 6.16985 37.7451 6.16985C36.8951 6.38958 35.6812 6.86106 34.1039 7.58432V7.6667C34.1039 7.79487 34.4865 7.9551 35.2514 8.14735L37.0367 8.50439L37.1217 8.61426V8.69667L36.5126 8.88895V8.9713C36.5126 9.09947 36.6871 9.19563 37.0367 9.25974C37.0744 9.57099 37.2254 9.72664 37.4901 9.72664V9.91889L37.2206 10.0013L36.2292 9.80903V10.0013H36.0592L34.7131 8.50439C34.4298 8.33046 33.0319 8.17483 30.5195 8.03752C29.6411 7.77199 27.9503 7.03043 25.4474 5.81281H25.3623V5.89519L25.8016 7.29592V7.39207L25.079 7.11741H24.909L24.824 7.58432C24.4556 7.16317 24.2714 6.7558 24.2714 6.36213H24.1014L23.7472 6.6505L23.6622 6.55435H23.563L23.9314 5.52444V5.42828C23.4402 5.05293 22.7838 4.86525 21.9621 4.86525C19.5819 5.2223 18.3918 5.62967 18.3918 6.08744L17.3292 7.39207V7.58432L17.9384 7.47445L19.1144 7.58432H19.1993C19.1993 7.11741 19.7613 6.80613 20.8853 6.6505C21.367 6.76037 21.6079 6.87937 21.6079 7.00755V7.11741C21.1451 7.11741 20.8475 7.27304 20.7153 7.58432V7.6667H21.3387C21.8487 7.6667 22.2076 7.85441 22.4154 8.22976C22.4154 8.35794 22.0282 8.44949 21.2537 8.50439L20.9845 8.61426V8.69667L20.2619 8.50439V8.7928L20.8003 9.53436V9.80903H20.7153C20.1675 9.80903 19.6905 9.34669 19.2844 8.42204L18.576 8.14735H17.5984C17.2583 8.14735 15.9502 8.58224 13.6739 9.45195L12.1437 9.63049L10.1036 9.34208L9.19682 9.32838L9.26766 15.0275L10.9678 15.4257L12.0729 15.4669L13.5605 15.1236L14.864 14.1623L14.7506 15.7416L15.034 17.623L14.7931 18.2547L13.7022 17.4994H11.8179L10.4578 17.5955L9.15432 17.6916L8.98432 18.1173ZM5.59818 25.4369L9.67853 24.7228L11.7612 24.4893L13.8297 24.7914L15.5299 25.2034L17.2442 25.8763L19.7235 26.3295L21.1687 26.3982L22.713 26.2059L23.2797 25.8763L22.9113 26.5767L21.027 27.4144L18.916 27.538L18.4059 27.2771L19.341 27.7852L20.517 28.307L19.0718 28.4306L17.1733 28.1834L16.0824 27.8538L13.5464 27.538L12.0021 27.6067H10.8403L9.82023 27.9911L7.34082 28.2383L6.10825 28.307L4.80478 27.4144L4.66311 26.4531L4.94648 25.3682L5.59818 25.4369ZM25.334 25.3545L25.2774 25.2446C25.9007 25.5101 25.4237 25.6016 23.8464 25.5193H23.6622C21.8487 25.5193 20.2572 24.5442 18.8877 22.5942C18.0471 21.2667 17.6267 20.0445 17.6267 18.9276C17.7778 14.9359 19.0104 12.3679 21.3245 11.2235C22.4202 10.7383 23.3694 10.4957 24.1723 10.4957C25.7024 10.4957 27.1475 11.0679 28.5076 12.2122H28.5926C28.7626 12.2122 29.079 11.8827 29.5419 11.2235H29.7261L29.9669 11.4982V13.5168C29.9669 15.2289 29.8583 16.0849 29.6411 16.0849C29.4333 16.0849 28.9374 15.412 28.1534 14.0662C27.1522 13.2148 26.0613 12.789 24.8806 12.789H23.6197C22.3824 13.0454 21.504 13.5351 20.9845 14.2584C20.4933 15.6225 20.2053 16.8127 20.1203 17.8289C19.8747 20.4473 20.9042 22.228 23.2088 23.171H24.7106C25.164 23.171 25.6126 23.1572 26.0566 23.1298C26.5572 23.0108 27.2514 22.8505 28.1393 22.6491C28.706 21.9075 29.3105 21.2026 29.9528 20.5343C30.2361 21.6237 30.3542 22.5622 30.3069 23.3495L30.1653 25.121L29.8961 25.3957L29.7119 25.3819C29.2207 24.7136 28.8855 24.3749 28.706 24.3657H28.621C27.3931 25.2538 26.2974 25.5834 25.334 25.3545ZM32.2621 11.0038H33.0555C35.1619 10.9214 36.3046 11.0953 36.4842 11.5256C35.6056 12.2214 35.1664 13.0912 35.1664 14.1349V16.3321H35.6909L40.9754 16.6479V13.5031L39.3884 11.6217V11.3059L40.7063 11.0038H42.8313L44.6729 11.3059V11.6217L43.3558 13.5031V23.2259C43.3558 23.647 43.7051 23.8576 44.4038 23.8576L44.6729 24.1734V24.4893L44.1491 25.1073H40.4513L39.1334 24.7914V24.1734C40.3614 24.1734 40.9754 23.8576 40.9754 23.2259V18.2135H34.8972L34.8831 18.8452V19.1473C34.9494 22.2875 35.1336 23.8576 35.4356 23.8576C35.9552 23.8576 36.2151 24.0682 36.2151 24.4893L35.6909 25.1073H31.9929L30.6753 24.7914V24.1734H31.9929L32.5171 23.5418V13.5031C32.0165 12.4594 31.4923 11.9376 30.9445 11.9376V11.3059L32.2621 11.0038ZM51.9128 11.0862H51.9698C52.4038 11.0862 52.8243 11.1732 53.2306 11.3471C53.6083 11.457 54.005 11.5897 54.4206 11.7454C56.933 12.8165 58.2743 15.2289 58.4443 18.9825C58.4443 20.0353 57.9861 21.1843 57.0701 22.4294C55.6721 24.1506 54.062 25.0661 52.239 25.176C52.05 25.2034 51.8516 25.2171 51.6436 25.2171H51.4736C49.7076 25.2171 48.1538 24.297 46.8124 22.4569C46.0001 21.2118 45.5941 20.0628 45.5941 19.0099C45.7264 15.65 46.6991 13.3658 48.5124 12.1573C49.3814 11.4249 50.3119 11.0587 51.304 11.0587C51.5019 11.0587 51.7051 11.0679 51.9128 11.0862ZM51.9553 12.7341H51.559C49.7643 13.0637 48.8669 13.6084 48.8669 14.3683C48.2153 15.6409 47.8894 16.7578 47.8894 17.7191C47.8894 20.6579 48.9519 22.5438 51.0773 23.377H52.2248C54.6615 22.5622 55.8801 20.667 55.8801 17.6916C55.8801 16.7303 55.5163 15.6088 54.789 14.3271C54.789 13.5947 53.8446 13.0637 51.9553 12.7341ZM69.3817 11.1823H71.4649L72.159 11.3059V14.794L71.8753 15.0549H71.7482C71.6062 15.0549 71.186 14.4553 70.487 13.256C70.043 12.908 69.486 12.7341 68.8153 12.7341L63.9413 12.8577V13.9014L64.225 14.794L64.0833 18.1585H65.6133C66.18 18.1585 66.69 17.687 67.1433 16.744L67.285 16.6067H67.427L67.71 16.8676L67.5683 19.7103V20.3558L67.427 21.2621H67.0158C66.8082 21.2621 66.5718 20.786 66.3075 19.8339L65.755 19.4494H63.9413L63.8142 20.0948L64.0833 21.0012V23.0611L64.225 23.7065H68.4045L69.6512 23.8439C70.0382 23.8439 70.5958 22.8963 71.3228 21.0012C71.6912 21.0836 71.8753 21.3399 71.8753 21.7702V25.1347L71.7482 25.7802H71.4649C70.9638 25.4323 70.5437 25.2583 70.2037 25.2583H60.4705C59.9888 25.2583 59.71 25.1302 59.6343 24.8738C59.6343 24.5992 60.1916 24.384 61.3063 24.2284L61.4476 24.1048V12.5968C61.4383 12.4228 61.0181 12.0795 60.1871 11.5668L60.3285 11.4432V11.3059L69.3817 11.1823ZM78.591 10.9351H79.0444L81.7222 11.3196L82.1044 11.2372V11.3196L80.5747 13.5168C80.329 12.876 79.5875 12.5556 78.3502 12.5556H77.5849C76.7635 13.2056 76.2677 13.6862 76.0973 13.9975V14.6841C76.3807 15.5264 77.8495 16.4465 80.5035 17.4444C82.1185 18.6987 82.9264 19.9621 82.9264 21.2347C82.9264 22.0037 82.5014 23.0886 81.651 24.4893C80.7637 25.1485 79.715 25.4781 78.506 25.4781H77.741C76.8814 25.4781 75.71 25.327 74.2274 25.0249H74.0715C73.9679 25.0249 73.9157 25.0981 73.9157 25.2446H73.8449V24.1872L73.6887 22.4432C73.8307 22.1044 73.982 21.8801 74.1424 21.7702C74.6143 23.1252 75.4882 23.8027 76.7635 23.8027H77.5282C78.9452 23.7111 79.7904 23.3678 80.0644 22.7727L80.4185 22.2234C80.4185 20.6945 79.0444 19.4814 76.296 18.5843C74.303 17.3849 73.3065 16.1993 73.3065 15.0275C73.3065 13.9746 74.095 12.8394 75.6724 11.6217C76.7494 11.164 77.722 10.9351 78.591 10.9351Z" fill="black"/>
</mask>
<g mask="url(#mask0_121_276)">
<path d="M12.0587 8.22976L12.1437 8.31215H12.6963C14.2264 8.31215 15.5629 7.63468 16.7058 6.27972H16.6208L12.0587 8.14735V8.22976ZM5.52735 6.23849L5.42818 5.77162C5.09758 5.86314 4.93231 5.96843 4.93231 6.08744L5.52735 6.23849ZM9.84856 5.49692C9.65019 5.79907 9.50379 6.11949 9.40936 6.45822H9.56519C9.94299 6.45822 10.4767 6.33462 11.1662 6.08744V5.89519C10.6372 5.72126 10.198 5.58851 9.84856 5.49692ZM8.98432 18.1173L8.63009 21.0973L8.89929 24.0224L8.92762 24.297L8.97012 24.558L9.32436 25.1073L9.66436 25.8351C8.75762 26.3295 7.93585 26.5538 7.19915 26.508L6.95828 26.4531L5.89568 26.6316C5.19678 26.7507 4.66781 26.6316 4.30891 26.2746L3.78471 25.7802V25.6841C3.78471 25.6292 3.94054 25.5879 4.25224 25.5605L4.73394 25.5193L4.69144 24.97C4.93701 24.6221 5.14955 24.2421 5.32901 23.8302L5.28651 23.2259L5.48485 21.7977L5.68318 20.3695L6.06571 18.2547L5.93821 17.211L5.66901 15.8377L5.44231 15.1648L5.99488 15.4944L5.73988 14.2996L6.32075 14.4644L6.39158 13.9563L6.19325 13.5718L6.27821 13.5581L5.54151 8.76535C3.82247 8.10616 3.04325 8.0146 3.20382 8.49068L1.03613 9.54811L1.24865 7.25472L3.47301 4.97512C1.85787 5.89062 1.83426 5.57477 3.40217 4.02756H4.12474L4.93231 3.83528L7.59589 3.28598V3.47824H7.69502C8.42232 3.47824 10.3255 3.94058 13.4047 4.86525L14.2122 4.97512C15.4212 4.47159 17.3811 4.06418 20.0919 3.7529C20.6209 3.48738 20.8853 3.29971 20.8853 3.18985L20.7153 2.53068C21.0081 1.29473 21.3906 0.676758 21.8629 0.676758L21.9621 0.759153V0.855283L21.7779 1.69298L21.8629 2.99759H21.9621C23.5205 2.79618 24.5312 2.45743 24.994 1.98137L25.2632 1.88524C26.6894 2.1782 27.4025 2.36588 27.4025 2.44828V2.53068L26.0707 3.09372L25.8016 3.18985L24.7248 2.99759H24.4698C23.0341 3.31802 22.3163 3.56979 22.3163 3.7529C23.8464 3.7529 25.5701 4.46702 27.4875 5.89519H27.6717C27.6717 4.7142 28.2951 4.12368 29.5419 4.12368V4.49447L31.327 4.02756L31.4971 4.21981C31.2137 4.90644 30.8312 5.24975 30.3495 5.24975L30.2645 5.33216V5.52444H30.3495L31.0578 5.42828L31.157 5.52444V5.70295C30.8831 5.70295 30.3731 5.98675 29.6269 6.55435L29.2869 6.6505V6.92513L31.412 7.29592H32.0354C33.1405 7.29592 34.5384 6.85649 36.2292 5.97757L37.7451 5.62053C38.1417 5.62053 38.9447 5.89979 40.1534 6.45822C40.8241 5.70751 41.4194 5.33216 41.9388 5.33216H42.3921L42.5621 5.52444L41.8538 6.27972V6.45822H41.9388C42.2884 6.45822 42.9729 6.61388 43.9929 6.92513C43.2939 7.48363 42.5479 7.76286 41.7546 7.76286H41.5846L41.4996 7.6667L41.2304 7.76286L41.3151 8.22976H41.2304C40.7864 8.22976 40.2529 7.7308 39.6292 6.73292C39.0249 6.35756 38.3971 6.16985 37.7451 6.16985C36.8951 6.38958 35.6812 6.86106 34.1039 7.58432V7.6667C34.1039 7.79488 34.4865 7.9551 35.2514 8.14735L37.0367 8.50439L37.1217 8.61426V8.69667L36.5126 8.88895V8.9713C36.5126 9.09947 36.6871 9.19563 37.0367 9.25974C37.0744 9.57099 37.2254 9.72664 37.4901 9.72664V9.91889L37.2206 10.0013L36.2292 9.80903V10.0013H36.0592L34.7131 8.50439C34.4298 8.33046 33.0319 8.17483 30.5195 8.03752C29.6411 7.772 27.9503 7.03043 25.4474 5.81281H25.3623V5.89519L25.8016 7.29592V7.39207L25.079 7.11741H24.909L24.824 7.58432C24.4556 7.16317 24.2714 6.7558 24.2714 6.36213H24.1014L23.7472 6.6505L23.6622 6.55435H23.563L23.9314 5.52444V5.42828C23.4402 5.05293 22.7838 4.86525 21.9621 4.86525C19.5819 5.2223 18.3918 5.62967 18.3918 6.08744L17.3292 7.39207V7.58432L17.9384 7.47445L19.1144 7.58432H19.1993C19.1993 7.11741 19.7613 6.80613 20.8853 6.6505C21.367 6.76037 21.6079 6.87937 21.6079 7.00755V7.11741C21.1451 7.11741 20.8475 7.27304 20.7153 7.58432V7.6667H21.3387C21.8487 7.6667 22.2076 7.85441 22.4154 8.22976C22.4154 8.35794 22.0282 8.44949 21.2537 8.50439L20.9845 8.61426V8.69667L20.2619 8.50439V8.79279L20.8003 9.53436V9.80903H20.7153C20.1675 9.80903 19.6905 9.34669 19.2844 8.42204L18.576 8.14735H17.5984C17.2583 8.14735 15.9502 8.58224 13.6739 9.45195L12.1437 9.63049L10.1036 9.34208L9.19682 9.32838L9.26766 15.0275L10.9678 15.4257L12.0729 15.4669L13.5605 15.1236L14.864 14.1623L14.7506 15.7416L15.034 17.623L14.7931 18.2547L13.7022 17.4994H11.8179L10.4578 17.5955L9.15432 17.6916L8.98432 18.1173ZM5.59818 25.4369L9.67852 24.7228L11.7612 24.4893L13.8297 24.7914L15.5299 25.2034L17.2442 25.8763L19.7235 26.3295L21.1687 26.3982L22.713 26.2059L23.2797 25.8763L22.9113 26.5767L21.027 27.4144L18.916 27.538L18.4059 27.2771L19.341 27.7852L20.517 28.307L19.0718 28.4306L17.1733 28.1834L16.0824 27.8538L13.5464 27.538L12.0021 27.6067H10.8403L9.82023 27.9911L7.34082 28.2383L6.10825 28.307L4.80478 27.4144L4.66311 26.4531L4.94648 25.3682L5.59818 25.4369ZM25.334 25.3545L25.2774 25.2446C25.9007 25.5101 25.4237 25.6016 23.8464 25.5193H23.6622C21.8487 25.5193 20.2572 24.5442 18.8877 22.5942C18.0471 21.2667 17.6267 20.0445 17.6267 18.9276C17.7778 14.9359 19.0104 12.3679 21.3245 11.2235C22.4202 10.7383 23.3694 10.4957 24.1723 10.4957C25.7024 10.4957 27.1475 11.0679 28.5076 12.2122H28.5926C28.7626 12.2122 29.079 11.8827 29.5419 11.2235H29.7261L29.9669 11.4982V13.5168C29.9669 15.2289 29.8583 16.0849 29.6411 16.0849C29.4333 16.0849 28.9374 15.412 28.1534 14.0662C27.1522 13.2148 26.0613 12.789 24.8806 12.789H23.6197C22.3824 13.0454 21.504 13.5351 20.9845 14.2584C20.4933 15.6225 20.2053 16.8127 20.1203 17.8289C19.8747 20.4473 20.9042 22.228 23.2088 23.171H24.7106C25.164 23.171 25.6126 23.1572 26.0566 23.1298C26.5572 23.0108 27.2514 22.8505 28.1393 22.6491C28.706 21.9075 29.3104 21.2026 29.9528 20.5343C30.2361 21.6237 30.3542 22.5622 30.3069 23.3495L30.1653 25.121L29.8961 25.3957L29.7119 25.3819C29.2207 24.7136 28.8854 24.3749 28.706 24.3657H28.621C27.3931 25.2538 26.2974 25.5834 25.334 25.3545ZM32.2621 11.0038H33.0555C35.1619 10.9214 36.3046 11.0953 36.4842 11.5256C35.6056 12.2214 35.1664 13.0912 35.1664 14.1349V16.3321H35.6909L40.9754 16.6479V13.5031L39.3884 11.6217V11.3059L40.7063 11.0038H42.8313L44.6729 11.3059V11.6217L43.3558 13.5031V23.2259C43.3558 23.647 43.7051 23.8576 44.4038 23.8576L44.6729 24.1734V24.4893L44.1491 25.1073H40.4513L39.1334 24.7914V24.1734C40.3614 24.1734 40.9754 23.8576 40.9754 23.2259V18.2135H34.8972L34.8831 18.8452V19.1473C34.9494 22.2875 35.1336 23.8576 35.4356 23.8576C35.9552 23.8576 36.2151 24.0682 36.2151 24.4893L35.6909 25.1073H31.9929L30.6753 24.7914V24.1734H31.9929L32.5171 23.5418V13.5031C32.0165 12.4594 31.4923 11.9376 30.9445 11.9376V11.3059L32.2621 11.0038ZM51.9128 11.0862H51.9698C52.4038 11.0862 52.8243 11.1732 53.2306 11.3471C53.6083 11.457 54.005 11.5897 54.4206 11.7454C56.933 12.8165 58.2743 15.2289 58.4443 18.9825C58.4443 20.0353 57.9861 21.1843 57.0701 22.4294C55.6721 24.1506 54.062 25.0661 52.239 25.176C52.05 25.2034 51.8516 25.2171 51.6436 25.2171H51.4736C49.7076 25.2171 48.1538 24.297 46.8124 22.4569C46.0001 21.2118 45.5941 20.0628 45.5941 19.0099C45.7264 15.65 46.6991 13.3658 48.5124 12.1573C49.3814 11.4249 50.3119 11.0587 51.304 11.0587C51.5019 11.0587 51.7051 11.0679 51.9128 11.0862ZM51.9553 12.7341H51.559C49.7643 13.0637 48.8669 13.6084 48.8669 14.3683C48.2153 15.6409 47.8894 16.7578 47.8894 17.7191C47.8894 20.6579 48.9519 22.5438 51.0773 23.377H52.2248C54.6615 22.5622 55.8801 20.667 55.8801 17.6916C55.8801 16.7303 55.5163 15.6088 54.789 14.3271C54.789 13.5947 53.8446 13.0637 51.9553 12.7341ZM69.3817 11.1823H71.4649L72.159 11.3059V14.794L71.8753 15.0549H71.7482C71.6062 15.0549 71.186 14.4553 70.487 13.256C70.043 12.908 69.486 12.7341 68.8153 12.7341L63.9413 12.8577V13.9014L64.225 14.794L64.0833 18.1585H65.6133C66.18 18.1585 66.69 17.687 67.1433 16.744L67.285 16.6067H67.427L67.71 16.8676L67.5683 19.7103V20.3558L67.427 21.2621H67.0158C66.8082 21.2621 66.5718 20.786 66.3075 19.8339L65.755 19.4494H63.9413L63.8142 20.0948L64.0833 21.0012V23.0611L64.225 23.7065H68.4045L69.6512 23.8439C70.0382 23.8439 70.5958 22.8963 71.3228 21.0012C71.6912 21.0836 71.8753 21.3399 71.8753 21.7702V25.1347L71.7482 25.7802H71.4649C70.9638 25.4323 70.5437 25.2583 70.2037 25.2583H60.4705C59.9888 25.2583 59.71 25.1302 59.6343 24.8738C59.6343 24.5992 60.1916 24.384 61.3063 24.2284L61.4476 24.1048V12.5968C61.4383 12.4228 61.0181 12.0795 60.1871 11.5668L60.3285 11.4432V11.3059L69.3817 11.1823ZM78.591 10.9351H79.0444L81.7222 11.3196L82.1044 11.2372V11.3196L80.5747 13.5168C80.329 12.876 79.5875 12.5556 78.3502 12.5556H77.5848C76.7635 13.2056 76.2677 13.6862 76.0973 13.9975V14.6841C76.3807 15.5264 77.8495 16.4465 80.5035 17.4444C82.1185 18.6987 82.9264 19.9621 82.9264 21.2347C82.9264 22.0037 82.5014 23.0886 81.651 24.4893C80.7637 25.1485 79.715 25.4781 78.506 25.4781H77.741C76.8814 25.4781 75.71 25.327 74.2274 25.0249H74.0715C73.9679 25.0249 73.9157 25.0981 73.9157 25.2446H73.8448V24.1872L73.6887 22.4432C73.8307 22.1044 73.982 21.8801 74.1424 21.7702C74.6143 23.1252 75.4882 23.8027 76.7635 23.8027H77.5282C78.9452 23.7111 79.7904 23.3678 80.0644 22.7727L80.4185 22.2234C80.4185 20.6945 79.0444 19.4814 76.296 18.5843C74.303 17.3849 73.3065 16.1993 73.3065 15.0275C73.3065 13.9746 74.095 12.8394 75.6723 11.6217C76.7494 11.164 77.722 10.9351 78.591 10.9351Z" stroke="#010000" stroke-width="4"/>
</g>
</g>
<path d="M3.1093 38.5845H1.38166C1.19083 38.5845 1.03613 38.736 1.03613 38.9229C1.03613 39.1099 1.19083 39.2614 1.38166 39.2614H3.1093C3.30013 39.2614 3.45483 39.1099 3.45483 38.9229C3.45483 38.736 3.30013 38.5845 3.1093 38.5845Z" fill="white"/>
<path d="M3.1093 38.5845H1.38166C1.19083 38.5845 1.03613 38.736 1.03613 38.9229C1.03613 39.1099 1.19083 39.2614 1.38166 39.2614H3.1093C3.30013 39.2614 3.45483 39.1099 3.45483 38.9229C3.45483 38.736 3.30013 38.5845 3.1093 38.5845Z" fill="white"/>
<path d="M7.87932 38.7774H9.12647L8.42999 36.9846L7.87932 38.7774ZM7.11809 41.3795L6.56738 41.2526L8.23563 36.0806H8.59197L10.5518 41.2844L10.0335 41.4269L9.27221 39.2692H7.74975L7.11809 41.3795ZM11.1024 40.8718V36.0806L11.6369 36.0487V40.6654L12.1714 40.7923L12.1228 41.3636L11.232 41.189L11.1024 40.8718ZM13.3538 41.1257V38.7219H12.5277L12.5763 38.1428H13.4672V36.5246H14.0178V38.1746H15.346V38.7459H13.9611V40.8082L15.184 40.5862L15.265 41.1257L13.6453 41.4587L13.3538 41.1257ZM15.7347 39.6659C15.7347 39.3751 15.7779 39.1318 15.8643 38.9362C15.9507 38.7351 16.0586 38.5767 16.1882 38.4603C16.3232 38.3384 16.4716 38.2538 16.6336 38.2064C16.7956 38.1536 16.9521 38.1269 17.1033 38.1269C17.3193 38.1269 17.5136 38.1587 17.6864 38.2223C17.8591 38.2806 18.0049 38.3807 18.1237 38.5236C18.2479 38.6613 18.3423 38.8461 18.4071 39.079C18.4719 39.3115 18.5043 39.5972 18.5043 39.9356L16.253 40.1499C16.2692 40.2978 16.3097 40.4251 16.3744 40.5307C16.4447 40.6312 16.531 40.7131 16.6336 40.7767C16.7362 40.84 16.8469 40.885 16.9656 40.9114C17.0844 40.9378 17.2059 40.951 17.33 40.951C17.5352 40.951 17.7323 40.9219 17.9212 40.8637C18.1102 40.8055 18.2506 40.7344 18.3423 40.6498L18.4881 41.0306C18.4503 41.0834 18.3936 41.1362 18.318 41.189C18.2425 41.2421 18.1534 41.2868 18.0508 41.324C17.9482 41.3663 17.8322 41.3978 17.7026 41.4191C17.5784 41.4455 17.4488 41.4587 17.3139 41.4587C17.1249 41.4587 16.9359 41.4296 16.747 41.3714C16.558 41.3132 16.388 41.2154 16.2368 41.0779C16.0856 40.9405 15.9641 40.7581 15.8724 40.5307C15.7806 40.2978 15.7347 40.0098 15.7347 39.6659ZM16.2044 39.6818L17.986 39.4916C17.986 39.2323 17.9158 39.0262 17.7755 38.8729C17.6351 38.7141 17.4083 38.6346 17.0952 38.6346C16.9441 38.64 16.8117 38.6718 16.6984 38.73C16.5904 38.7883 16.4986 38.862 16.423 38.9521C16.3475 39.0367 16.2908 39.1345 16.253 39.2455C16.2152 39.3565 16.1963 39.4703 16.1963 39.5867C16.1963 39.629 16.199 39.6608 16.2044 39.6818ZM19.4113 41.4746L19.136 37.9844L19.6381 37.9208L19.7515 39.4598L21.4845 38.3175L21.7112 38.7615L19.8324 40.0944V41.4269L19.4113 41.4746ZM24.2865 38.7141H22.7154V41.2526L22.3105 41.3V37.889L22.6992 37.8098V38.2064L24.5781 38.0954L24.821 38.5713L25.064 41.1575L24.5457 41.3L24.2865 38.7141ZM28.4167 38.9521L28.935 41.1098L28.449 41.2844L28.1575 39.9356C28.1197 40.0839 28.0603 40.2372 27.9794 40.3959C27.9038 40.5543 27.8066 40.6999 27.6878 40.8322C27.5744 40.9591 27.4367 41.0647 27.2748 41.1494C27.1182 41.2286 26.9401 41.2685 26.7403 41.2685C26.384 41.2685 26.1113 41.1575 25.9224 40.9351C25.7388 40.7077 25.647 40.3959 25.647 39.9993C25.647 39.7718 25.6821 39.5363 25.7523 39.2932C25.8225 39.0445 25.9278 38.8197 26.0681 38.619C26.2085 38.418 26.384 38.2515 26.5946 38.1191C26.8105 37.9868 27.0615 37.9208 27.3477 37.9208C27.515 37.9208 27.6608 37.9577 27.785 38.0318C27.9146 38.1005 28.0226 38.1878 28.1089 38.2938C28.1953 38.3994 28.2628 38.5131 28.3114 38.6346C28.36 38.751 28.3951 38.857 28.4167 38.9521ZM27.4287 38.4921C27.3909 38.4813 27.3531 38.4735 27.3153 38.4681C27.2829 38.463 27.2478 38.4603 27.21 38.4603C27.0426 38.4603 26.8915 38.5104 26.7565 38.6109C26.6269 38.706 26.5163 38.8279 26.4245 38.9758C26.3381 39.124 26.2706 39.2851 26.222 39.4598C26.1788 39.6344 26.1572 39.7955 26.1572 39.9438C26.1572 40.1763 26.2085 40.3641 26.3111 40.507C26.4137 40.6498 26.5757 40.7209 26.797 40.7209C26.9482 40.7209 27.0885 40.6735 27.2181 40.5784C27.3477 40.4779 27.4584 40.3536 27.5501 40.2054C27.6419 40.0575 27.7121 39.896 27.7607 39.7214C27.8147 39.5417 27.8417 39.3751 27.8417 39.2218C27.8417 39.0526 27.8066 38.9043 27.7364 38.7774C27.6716 38.6454 27.569 38.55 27.4287 38.4921ZM30.1983 41.1257V38.7219H29.3723L29.4208 38.1428H30.3117V36.5246H30.8623V38.1746H32.1905V38.7459H30.8056V40.8082L32.0285 40.5862L32.1095 41.1257L30.4898 41.4587L30.1983 41.1257ZM32.5792 39.6659C32.5792 39.3751 32.6224 39.1318 32.7088 38.9362C32.7952 38.7351 32.9031 38.5767 33.0327 38.4603C33.1677 38.3384 33.3162 38.2538 33.4781 38.2064C33.6401 38.1536 33.7966 38.1269 33.9478 38.1269C34.1638 38.1269 34.3581 38.1587 34.5309 38.2223C34.7038 38.2806 34.8493 38.3807 34.9682 38.5236C35.0922 38.6613 35.1869 38.8461 35.2515 39.079C35.3165 39.3115 35.3489 39.5972 35.3489 39.9356L33.0975 40.1499C33.1137 40.2978 33.1542 40.4251 33.219 40.5307C33.2892 40.6312 33.3756 40.7131 33.4781 40.7767C33.5807 40.84 33.6914 40.885 33.8102 40.9114C33.9289 40.9378 34.0504 40.951 34.1746 40.951C34.3797 40.951 34.5767 40.9219 34.7657 40.8637C34.9547 40.8055 35.095 40.7344 35.1869 40.6498L35.3327 41.0306C35.2947 41.0834 35.238 41.1362 35.1627 41.189C35.087 41.2421 34.9979 41.2868 34.8953 41.324C34.7926 41.3663 34.6765 41.3978 34.5471 41.4191C34.4229 41.4455 34.2933 41.4587 34.1584 41.4587C33.9694 41.4587 33.7804 41.4296 33.5915 41.3714C33.4025 41.3132 33.2325 41.2154 33.0813 41.0779C32.9301 40.9405 32.8086 40.7581 32.7169 40.5307C32.6251 40.2978 32.5792 40.0098 32.5792 39.6659ZM33.0489 39.6818L34.8306 39.4916C34.8306 39.2323 34.7605 39.0262 34.6199 38.8729C34.4796 38.7141 34.2528 38.6346 33.9397 38.6346C33.7886 38.64 33.6563 38.6718 33.5429 38.73C33.4349 38.7883 33.3431 38.862 33.2675 38.9521C33.192 39.0367 33.1353 39.1345 33.0975 39.2455C33.0597 39.3565 33.0408 39.4703 33.0408 39.5867C33.0408 39.629 33.0435 39.6608 33.0489 39.6818ZM38.6204 39.1108V41.7762H38.0213V36.7152L38.41 36.3659C38.534 36.35 38.6584 36.3368 38.7825 36.3263C38.912 36.3158 39.0388 36.3104 39.1632 36.3104C39.4548 36.3104 39.7382 36.3395 40.0136 36.3977C40.289 36.4505 40.5343 36.5378 40.7506 36.6593C40.9662 36.7758 41.139 36.9267 41.2689 37.1115C41.4036 37.2967 41.471 37.5214 41.471 37.7861C41.471 38.024 41.4278 38.2251 41.3414 38.3889C41.2551 38.5527 41.139 38.6901 40.9935 38.8015C40.8477 38.9071 40.6829 38.989 40.4994 39.0472C40.3159 39.1 40.1269 39.1372 39.9324 39.1582L41.2119 41.1575L40.791 41.4428L39.3657 39.19C39.2361 39.19 39.1093 39.1873 38.9849 39.1822C38.8609 39.1768 38.7393 39.1531 38.6204 39.1108ZM38.6529 38.6346C38.8636 38.6928 39.1066 38.7219 39.3819 38.7219C39.5599 38.7219 39.7409 38.7087 39.9244 38.6823C40.1079 38.6505 40.2727 38.6004 40.4185 38.5317C40.5695 38.4576 40.6911 38.3598 40.7827 38.2383C40.8746 38.1164 40.9206 37.9658 40.9206 37.7861C40.9206 37.6327 40.8798 37.495 40.799 37.3735C40.7181 37.2516 40.6048 37.1515 40.459 37.0719C40.3187 36.9873 40.1511 36.924 39.9569 36.8817C39.7679 36.834 39.5627 36.8103 39.3412 36.8103C39.2385 36.8103 39.1363 36.8154 39.0337 36.8262C38.931 36.8367 38.8256 36.8526 38.7178 36.8736C38.6909 37.1538 38.6719 37.45 38.6612 37.762C38.6556 38.0741 38.6529 38.3652 38.6529 38.6346ZM42.038 39.6659C42.038 39.3751 42.0812 39.1318 42.1676 38.9362C42.254 38.7351 42.3621 38.5767 42.4917 38.4603C42.6265 38.3384 42.775 38.2538 42.9371 38.2064C43.0988 38.1536 43.2557 38.1269 43.4067 38.1269C43.6226 38.1269 43.8168 38.1587 43.9896 38.2223C44.1623 38.2806 44.3081 38.3807 44.427 38.5236C44.5514 38.6613 44.6457 38.8461 44.7103 39.079C44.7753 39.3115 44.8078 39.5972 44.8078 39.9356L42.5563 40.1499C42.5726 40.2978 42.613 40.4251 42.6779 40.5307C42.7481 40.6312 42.8345 40.7131 42.9371 40.7767C43.0394 40.84 43.1503 40.885 43.2691 40.9114C43.3877 40.9378 43.5093 40.951 43.6333 40.951C43.8386 40.951 44.0355 40.9219 44.2245 40.8637C44.4135 40.8055 44.5538 40.7344 44.6457 40.6498L44.7915 41.0306C44.7535 41.0834 44.6969 41.1362 44.6215 41.189C44.5459 41.2421 44.4567 41.2868 44.3541 41.324C44.2515 41.3663 44.1354 41.3978 44.0058 41.4191C43.8818 41.4455 43.7522 41.4587 43.6171 41.4587C43.4284 41.4587 43.2394 41.4296 43.0504 41.3714C42.8614 41.3132 42.6914 41.2154 42.5401 41.0779C42.3891 40.9405 42.2674 40.7581 42.1755 40.5307C42.084 40.2978 42.038 40.0098 42.038 39.6659ZM42.5076 39.6818L44.2895 39.4916C44.2895 39.2323 44.2193 39.0262 44.0787 38.8729C43.9384 38.7141 43.7118 38.6346 43.3987 38.6346C43.2474 38.64 43.115 38.6718 43.0017 38.73C42.8939 38.7883 42.802 38.862 42.7263 38.9521C42.651 39.0367 42.594 39.1345 42.5563 39.2455C42.5187 39.3565 42.4996 39.4703 42.4996 39.5867C42.4996 39.629 42.5024 39.6608 42.5076 39.6818ZM48.2251 38.9521L48.7433 41.1098L48.2575 41.2844L47.9659 39.9356C47.9282 40.0839 47.8688 40.2372 47.788 40.3959C47.7123 40.5543 47.6152 40.6999 47.4963 40.8322C47.383 40.9591 47.2451 41.0647 47.0834 41.1494C46.9266 41.2286 46.7486 41.2685 46.5489 41.2685C46.1927 41.2685 45.9197 41.1575 45.731 40.9351C45.5472 40.7077 45.4556 40.3959 45.4556 39.9993C45.4556 39.7718 45.4905 39.5363 45.5607 39.2932C45.6308 39.0445 45.7362 38.8197 45.8765 38.619C46.0171 38.418 46.1927 38.2515 46.4031 38.1191C46.619 37.9868 46.8699 37.9208 47.1563 37.9208C47.3236 37.9208 47.4694 37.9577 47.5934 38.0318C47.723 38.1005 47.8311 38.1878 47.9175 38.2938C48.0039 38.3994 48.0713 38.5131 48.12 38.6346C48.1684 38.751 48.2036 38.857 48.2251 38.9521ZM47.2372 38.4921C47.1995 38.4813 47.1615 38.4735 47.1238 38.4681C47.0914 38.463 47.0565 38.4603 47.0185 38.4603C46.8512 38.4603 46.6999 38.5104 46.5651 38.6109C46.4356 38.706 46.3246 38.8279 46.2331 38.9758C46.1467 39.124 46.079 39.2851 46.0306 39.4598C45.9874 39.6344 45.9656 39.7955 45.9656 39.9438C45.9656 40.1763 46.0171 40.3641 46.1197 40.507C46.222 40.6498 46.3841 40.7209 46.6056 40.7209C46.7566 40.7209 46.8972 40.6735 47.0268 40.5784C47.1563 40.4779 47.2669 40.3536 47.3585 40.2054C47.4504 40.0575 47.5205 39.896 47.5692 39.7214C47.6231 39.5417 47.6501 39.3751 47.6501 39.2218C47.6501 39.0526 47.6152 38.9043 47.5451 38.7774C47.4801 38.6454 47.3775 38.55 47.2372 38.4921ZM49.4237 40.8718V36.0806L49.9582 36.0487V40.6654L50.4928 40.7923L50.444 41.3636L49.5533 41.189L49.4237 40.8718ZM51.2215 41.3159V38.4126H51.7885V41.3477L51.2215 41.3159ZM51.9664 37.762L51.3998 37.9208L50.8815 36.7152L51.4481 36.5723L51.9664 37.762ZM53.1488 41.1257V38.7219H52.323L52.3714 38.1428H53.2622V36.5246H53.8129V38.1746H55.1411V38.7459H53.7563V40.8082L54.9791 40.5862L55.0603 41.1257L53.4405 41.4587L53.1488 41.1257ZM56.7769 40.8082L55.3678 38.4126L55.8053 38.0795L56.9956 40.1817L57.7813 37.9049L58.2347 38.1428L56.6473 42.712L56.2102 42.4423L56.7769 40.8082ZM64.5837 38.9839C64.5675 39.1636 64.5485 39.3619 64.5271 39.5789C64.5108 39.7901 64.4946 40.0098 64.4784 40.2372L64.3733 41.5856L63.8713 41.5383L63.9846 40.0467C63.9466 40.0998 63.8847 40.1658 63.7984 40.245C63.7172 40.3245 63.6145 40.401 63.4905 40.4751C63.3665 40.5439 63.2234 40.6048 63.0613 40.6576C62.8993 40.7104 62.7238 40.7368 62.5348 40.7368C62.2756 40.7368 62.0327 40.6867 61.806 40.5862C61.5846 40.4856 61.3931 40.3455 61.2311 40.1658C61.069 39.9861 60.9395 39.7718 60.8424 39.5231C60.7505 39.2692 60.7048 38.9917 60.7048 38.6901C60.7048 38.2883 60.756 37.9154 60.8586 37.5718C60.9664 37.2229 61.1122 36.9213 61.2957 36.6675C61.4847 36.4082 61.7089 36.2075 61.9681 36.0647C62.2272 35.9164 62.5106 35.8423 62.8184 35.8423C63.0019 35.8423 63.1719 35.8663 63.3284 35.9137C63.4905 35.956 63.6335 36.0142 63.7576 36.0883C63.882 36.1571 63.9874 36.239 64.0737 36.3344C64.1601 36.4295 64.222 36.5246 64.26 36.6197L63.8225 36.8421C63.7144 36.6729 63.5769 36.5483 63.4096 36.4691C63.2421 36.3899 63.0665 36.35 62.8831 36.35C62.6564 36.35 62.4432 36.4055 62.2435 36.5168C62.049 36.6224 61.879 36.7758 61.7331 36.9768C61.5929 37.1724 61.4795 37.4104 61.3931 37.6906C61.3119 37.9658 61.2715 38.2697 61.2715 38.6031C61.2715 38.8092 61.2985 39.0103 61.3524 39.2059C61.4118 39.3961 61.4958 39.5654 61.6036 39.7136C61.7169 39.8564 61.8572 39.9729 62.0248 40.0626C62.192 40.1472 62.389 40.1895 62.616 40.1895C62.7887 40.1895 62.9532 40.1553 63.1097 40.0866C63.2718 40.0175 63.4148 39.9279 63.5392 39.8168C63.6633 39.7055 63.7631 39.5789 63.8388 39.4361C63.9196 39.2878 63.9684 39.1372 63.9846 38.9839H62.5914V38.4762H65.4583V38.9839H64.5837ZM68.9084 38.9521L69.4267 41.1098L68.9405 41.2844L68.6492 39.9356C68.6112 40.0839 68.5518 40.2372 68.4709 40.3959C68.3953 40.5543 68.2982 40.6999 68.1793 40.8322C68.066 40.9591 67.9285 41.0647 67.7664 41.1494C67.6099 41.2286 67.4316 41.2685 67.2319 41.2685C66.8756 41.2685 66.603 41.1575 66.414 40.9351C66.2305 40.7077 66.1386 40.3959 66.1386 39.9993C66.1386 39.7718 66.1739 39.5363 66.244 39.2932C66.3142 39.0445 66.4195 38.8197 66.5598 38.619C66.7001 38.418 66.8756 38.2515 67.0861 38.1191C67.302 37.9868 67.5532 37.9208 67.8393 37.9208C68.0066 37.9208 68.1524 37.9577 68.2768 38.0318C68.4063 38.1005 68.5141 38.1878 68.6005 38.2938C68.6869 38.3994 68.7543 38.5131 68.803 38.6346C68.8517 38.751 68.8866 38.857 68.9084 38.9521ZM67.9202 38.4921C67.8825 38.4813 67.8448 38.4735 67.8068 38.4681C67.7744 38.463 67.7395 38.4603 67.7018 38.4603C67.5342 38.4603 67.3832 38.5104 67.2481 38.6109C67.1185 38.706 67.008 38.8279 66.9161 38.9758C66.8297 39.124 66.7623 39.2851 66.7136 39.4598C66.6704 39.6344 66.649 39.7955 66.649 39.9438C66.649 40.1763 66.7001 40.3641 66.8027 40.507C66.9054 40.6498 67.0674 40.7209 67.2885 40.7209C67.4399 40.7209 67.5802 40.6735 67.7097 40.5784C67.8393 40.4779 67.9499 40.3536 68.0418 40.2054C68.1337 40.0575 68.2039 39.896 68.2522 39.7214C68.3065 39.5417 68.3334 39.3751 68.3334 39.2218C68.3334 39.0526 68.2982 38.9043 68.228 38.7774C68.1631 38.6454 68.0608 38.55 67.9202 38.4921ZM70.0258 37.9685L70.5279 37.8575L70.5683 38.2064H73.5405L73.913 38.619V41.0939L73.573 41.1416V39.0472L73.2489 38.619H72.4231V41.2049H71.9532V38.6823H70.625L70.9004 41.2844L70.3821 41.3477L70.0258 37.9685ZM74.5934 39.6659C74.5934 39.3751 74.6366 39.1318 74.7229 38.9362C74.8093 38.7351 74.9171 38.5767 75.0467 38.4603C75.1818 38.3384 75.3304 38.2538 75.4921 38.2064C75.6541 38.1536 75.8107 38.1269 75.962 38.1269C76.178 38.1269 76.3721 38.1587 76.5449 38.2223C76.7177 38.2806 76.8635 38.3807 76.9823 38.5236C77.1064 38.6613 77.2011 38.8461 77.2657 39.079C77.3306 39.3115 77.3628 39.5972 77.3628 39.9356L75.1116 40.1499C75.1279 40.2978 75.1683 40.4251 75.2329 40.5307C75.3034 40.6312 75.3898 40.7131 75.4921 40.7767C75.5947 40.84 75.7056 40.885 75.8241 40.9114C75.943 40.9378 76.0646 40.951 76.1887 40.951C76.3939 40.951 76.5909 40.9219 76.7799 40.8637C76.9689 40.8055 77.1091 40.7344 77.2011 40.6498L77.3469 41.0306C77.3089 41.0834 77.2522 41.1362 77.1765 41.189C77.1012 41.2421 77.0121 41.2868 76.9094 41.324C76.8068 41.3663 76.6907 41.3978 76.5611 41.4191C76.4371 41.4455 76.3075 41.4587 76.1724 41.4587C75.9834 41.4587 75.7944 41.4296 75.6054 41.3714C75.4168 41.3132 75.2464 41.2154 75.0954 41.0779C74.9441 40.9405 74.8228 40.7581 74.7309 40.5307C74.6393 40.2978 74.5934 40.0098 74.5934 39.6659ZM75.0629 39.6818L76.8445 39.4916C76.8445 39.2323 76.7743 39.0262 76.6341 38.8729C76.4938 38.7141 76.2671 38.6346 75.9537 38.6346C75.8027 38.64 75.6704 38.6718 75.557 38.73C75.4489 38.7883 75.3573 38.862 75.2817 38.9521C75.206 39.0367 75.1493 39.1345 75.1116 39.2455C75.0736 39.3565 75.055 39.4703 75.055 39.5867C75.055 39.629 75.0578 39.6608 75.0629 39.6818Z" fill="#F2F2F2"/>
<path d="M82.581 38.5845H80.8533C80.6625 38.5845 80.5078 38.736 80.5078 38.9229C80.5078 39.1099 80.6625 39.2614 80.8533 39.2614H82.581C82.7718 39.2614 82.9265 39.1099 82.9265 38.9229C82.9265 38.736 82.7718 38.5845 82.581 38.5845Z" fill="white"/>
<path d="M82.581 38.5845H80.8533C80.6625 38.5845 80.5078 38.736 80.5078 38.9229C80.5078 39.1099 80.6625 39.2614 80.8533 39.2614H82.581C82.7718 39.2614 82.9265 39.1099 82.9265 38.9229C82.9265 38.736 82.7718 38.5845 82.581 38.5845Z" fill="white"/>
<defs>
<filter id="filter0_d_121_276" x="0" y="0" width="84.6182" height="30.4463" filterUnits="userSpaceOnUse" color-interpolation-filters="sRGB">
<feFlood flood-opacity="0" result="BackgroundImageFix"/>
<feColorMatrix in="SourceAlpha" type="matrix" values="0 0 0 0 0 0 0 0 0 0 0 0 0 0 0 0 0 0 127 0" result="hardAlpha"/>
<feOffset dx="1" dy="1"/>
<feComposite in2="hardAlpha" operator="out"/>
<feColorMatrix type="matrix" values="0 0 0 0 0 0 0 0 0 0 0 0 0 0 0 0 0 0 1 0"/>
<feBlend mode="normal" in2="BackgroundImageFix" result="effect1_dropShadow_121_276"/>
<feBlend mode="normal" in="SourceGraphic" in2="effect1_dropShadow_121_276" result="shape"/>
</filter>
<linearGradient id="paint0_linear_121_276" x1="41.9813" y1="0.676758" x2="41.9813" y2="28.4306" gradientUnits="userSpaceOnUse">
<stop stop-color="#EBC03E"/>
<stop offset="1" stop-color="#C18915"/>
</linearGradient>
</defs>
</svg>
